{
	"patcher" : 	{
		"fileversion" : 1,
		"appversion" : 		{
			"major" : 7,
			"minor" : 3,
			"revision" : 5,
			"architecture" : "x64",
			"modernui" : 1
		}
,
		"openrect" : [ 50.0, 50.0, 433.0, 364.3 ],
		"bgcolor" : [ 0.239216, 0.254902, 0.278431, 1.0 ],
		"bglocked" : 0,
		"openinpresentation" : 1,
		"default_fontsize" : 12.0,
		"default_fontface" : 0,
		"default_fontname" : "Arial",
		"gridonopen" : 1,
		"gridsize" : [ 15.0, 15.0 ],
		"gridsnaponopen" : 1,
		"objectsnaponopen" : 1,
		"statusbarvisible" : 2,
		"toolbarvisible" : 0,
		"lefttoolbarpinned" : 0,
		"toptoolbarpinned" : 0,
		"righttoolbarpinned" : 0,
		"bottomtoolbarpinned" : 0,
		"toolbars_unpinned_last_save" : 0,
		"tallnewobj" : 0,
		"boxanimatetime" : 200,
		"enablehscroll" : 0,
		"enablevscroll" : 0,
		"devicewidth" : 0.0,
		"description" : "",
		"digest" : "",
		"tags" : "",
		"style" : "",
		"subpatcher_template" : "",
		"boxes" : [ 			{
				"box" : 				{
					"id" : "obj-79",
					"maxclass" : "newobj",
					"numinlets" : 2,
					"numoutlets" : 1,
					"outlettype" : [ "" ],
					"patching_rect" : [ 28.0, 482.5, 75.0, 22.0 ],
					"style" : "",
					"text" : "speedlim 20"
				}

			}
, 			{
				"box" : 				{
					"id" : "obj-78",
					"maxclass" : "newobj",
					"numinlets" : 1,
					"numoutlets" : 1,
					"outlettype" : [ "" ],
					"patching_rect" : [ 194.0, 41.0, 74.0, 22.0 ],
					"style" : "",
					"text" : "prepend set"
				}

			}
, 			{
				"box" : 				{
					"id" : "obj-77",
					"maxclass" : "newobj",
					"numinlets" : 1,
					"numoutlets" : 1,
					"outlettype" : [ "" ],
					"patching_rect" : [ 85.5, 41.0, 74.0, 22.0 ],
					"style" : "",
					"text" : "prepend set"
				}

			}
, 			{
				"box" : 				{
					"id" : "obj-69",
					"maxclass" : "newobj",
					"numinlets" : 1,
					"numoutlets" : 1,
					"outlettype" : [ "" ],
					"patching_rect" : [ 909.0, 266.432373, 134.0, 22.0 ],
					"style" : "",
					"text" : "prepend /decode_hand"
				}

			}
, 			{
				"box" : 				{
					"id" : "obj-81",
					"maxclass" : "newobj",
					"numinlets" : 0,
					"numoutlets" : 1,
					"outlettype" : [ "" ],
					"patching_rect" : [ 1047.5, 226.932373, 126.0, 22.0 ],
					"style" : "",
					"text" : "r leap_right_message"
				}

			}
, 			{
				"box" : 				{
					"id" : "obj-80",
					"maxclass" : "newobj",
					"numinlets" : 0,
					"numoutlets" : 1,
					"outlettype" : [ "" ],
					"patching_rect" : [ 909.0, 226.932373, 119.0, 22.0 ],
					"style" : "",
					"text" : "r leap_left_message"
				}

			}
, 			{
				"box" : 				{
					"id" : "obj-75",
					"linecolor" : [ 0.349151, 0.377564, 0.442529, 1.0 ],
					"maxclass" : "live.line",
					"numinlets" : 1,
					"numoutlets" : 0,
					"patching_rect" : [ 1282.333374, 845.0, 33.0, 63.0 ],
					"presentation" : 1,
					"presentation_rect" : [ 360.374695, 50.5, 61.0, 29.671814 ]
				}

			}
, 			{
				"box" : 				{
					"id" : "obj-70",
					"linecolor" : [ 0.349151, 0.377564, 0.442529, 1.0 ],
					"maxclass" : "live.line",
					"numinlets" : 1,
					"numoutlets" : 0,
					"patching_rect" : [ 1267.333374, 830.0, 33.0, 63.0 ],
					"presentation" : 1,
					"presentation_rect" : [ 360.374695, 126.828186, 61.0, 29.671814 ]
				}

			}
, 			{
				"box" : 				{
					"id" : "obj-53",
					"maxclass" : "newobj",
					"numinlets" : 1,
					"numoutlets" : 1,
					"outlettype" : [ "" ],
					"patching_rect" : [ 417.0, 547.0, 53.0, 22.0 ],
					"style" : "",
					"text" : "pcontrol"
				}

			}
, 			{
				"box" : 				{
					"fontname" : "Arial",
					"fontsize" : 9.0,
					"id" : "obj-51",
					"maxclass" : "newobj",
					"numinlets" : 1,
					"numoutlets" : 4,
					"outlettype" : [ "", "", "", "" ],
					"patching_rect" : [ 1047.5, 327.5, 114.0, 19.0 ],
					"restore" : 					{
						"xy_close" : [ 0.0 ],
						"xy_freeze" : [ 0.0 ],
						"xy_pad_large" : [ -112, 62 ],
						"xy_pad_small" : [ -112, 62 ],
						"xy_x" : [ 0.0 ],
						"xy_x_small" : [ 0.0 ],
						"xy_y" : [ 1.0 ],
						"xy_y_small" : [ 1.0 ]
					}
,
					"style" : "",
					"text" : "autopattr @autoname 1",
					"varname" : "u645041417"
				}

			}
, 			{
				"box" : 				{
					"id" : "obj-73",
					"maxclass" : "newobj",
					"numinlets" : 0,
					"numoutlets" : 1,
					"outlettype" : [ "" ],
					"patching_rect" : [ 947.0, 459.0, 87.0, 22.0 ],
					"style" : "",
					"text" : "r #0_cur_dims"
				}

			}
, 			{
				"box" : 				{
					"id" : "obj-72",
					"maxclass" : "newobj",
					"numinlets" : 1,
					"numoutlets" : 0,
					"patching_rect" : [ 351.0, 416.0, 89.0, 22.0 ],
					"style" : "",
					"text" : "s #0_cur_dims"
				}

			}
, 			{
				"box" : 				{
					"id" : "obj-71",
					"maxclass" : "newobj",
					"numinlets" : 2,
					"numoutlets" : 1,
					"outlettype" : [ "" ],
					"patching_rect" : [ 351.0, 347.0, 50.0, 22.0 ],
					"style" : "",
					"text" : "pak 0 0"
				}

			}
, 			{
				"box" : 				{
					"comment" : "",
					"id" : "obj-66",
					"index" : 0,
					"maxclass" : "outlet",
					"numinlets" : 1,
					"numoutlets" : 0,
					"patching_rect" : [ 947.0, 510.0, 30.0, 30.0 ],
					"style" : ""
				}

			}
, 			{
				"box" : 				{
					"id" : "obj-68",
					"maxclass" : "newobj",
					"numinlets" : 2,
					"numoutlets" : 1,
					"outlettype" : [ "float" ],
					"patching_rect" : [ 684.0, 428.0, 42.0, 22.0 ],
					"style" : "",
					"text" : "* 100."
				}

			}
, 			{
				"box" : 				{
					"id" : "obj-67",
					"maxclass" : "newobj",
					"numinlets" : 2,
					"numoutlets" : 1,
					"outlettype" : [ "float" ],
					"patching_rect" : [ 550.5, 428.0, 42.0, 22.0 ],
					"style" : "",
					"text" : "* 100."
				}

			}
, 			{
				"box" : 				{
					"id" : "obj-64",
					"maxclass" : "newobj",
					"numinlets" : 1,
					"numoutlets" : 0,
					"patching_rect" : [ 684.0, 459.0, 72.0, 22.0 ],
					"style" : "",
					"text" : "s #0_y_pos"
				}

			}
, 			{
				"box" : 				{
					"id" : "obj-65",
					"maxclass" : "newobj",
					"numinlets" : 1,
					"numoutlets" : 0,
					"patching_rect" : [ 550.5, 459.0, 72.0, 22.0 ],
					"style" : "",
					"text" : "s #0_x_pos"
				}

			}
, 			{
				"box" : 				{
					"id" : "obj-62",
					"maxclass" : "newobj",
					"numinlets" : 0,
					"numoutlets" : 1,
					"outlettype" : [ "" ],
					"patching_rect" : [ 719.0, 366.932373, 70.0, 22.0 ],
					"style" : "",
					"text" : "r #0_y_dim"
				}

			}
, 			{
				"box" : 				{
					"id" : "obj-63",
					"maxclass" : "newobj",
					"numinlets" : 0,
					"numoutlets" : 1,
					"outlettype" : [ "" ],
					"patching_rect" : [ 586.0, 366.932373, 70.0, 22.0 ],
					"style" : "",
					"text" : "r #0_x_dim"
				}

			}
, 			{
				"box" : 				{
					"id" : "obj-60",
					"maxclass" : "newobj",
					"numinlets" : 1,
					"numoutlets" : 0,
					"patching_rect" : [ 425.0, 378.0, 72.0, 22.0 ],
					"style" : "",
					"text" : "s #0_y_dim"
				}

			}
, 			{
				"box" : 				{
					"id" : "obj-61",
					"maxclass" : "newobj",
					"numinlets" : 1,
					"numoutlets" : 1,
					"outlettype" : [ "" ],
					"patching_rect" : [ 425.0, 347.0, 70.0, 22.0 ],
					"style" : "",
					"text" : "sprintf x%d"
				}

			}
, 			{
				"box" : 				{
					"id" : "obj-59",
					"maxclass" : "newobj",
					"numinlets" : 2,
					"numoutlets" : 2,
					"outlettype" : [ "", "" ],
					"patching_rect" : [ 550.5, 325.5, 49.0, 22.0 ],
					"style" : "",
					"text" : "zl iter 2"
				}

			}
, 			{
				"box" : 				{
					"id" : "obj-58",
					"maxclass" : "newobj",
					"numinlets" : 2,
					"numoutlets" : 2,
					"outlettype" : [ "", "" ],
					"patching_rect" : [ 684.0, 397.5, 54.0, 22.0 ],
					"style" : "",
					"text" : "route x1"
				}

			}
, 			{
				"box" : 				{
					"id" : "obj-57",
					"maxclass" : "newobj",
					"numinlets" : 1,
					"numoutlets" : 0,
					"patching_rect" : [ 254.0, 378.0, 72.0, 22.0 ],
					"style" : "",
					"text" : "s #0_x_dim"
				}

			}
, 			{
				"box" : 				{
					"id" : "obj-56",
					"maxclass" : "newobj",
					"numinlets" : 1,
					"numoutlets" : 1,
					"outlettype" : [ "" ],
					"patching_rect" : [ 254.0, 347.0, 70.0, 22.0 ],
					"style" : "",
					"text" : "sprintf x%d"
				}

			}
, 			{
				"box" : 				{
					"id" : "obj-55",
					"maxclass" : "newobj",
					"numinlets" : 0,
					"numoutlets" : 1,
					"outlettype" : [ "" ],
					"patching_rect" : [ 194.0, 10.0, 70.0, 22.0 ],
					"style" : "",
					"text" : "r #0_y_pos"
				}

			}
, 			{
				"box" : 				{
					"id" : "obj-54",
					"maxclass" : "newobj",
					"numinlets" : 1,
					"numoutlets" : 0,
					"patching_rect" : [ 253.0, 524.0, 72.0, 22.0 ],
					"style" : "",
					"text" : "s #0_y_pos"
				}

			}
, 			{
				"box" : 				{
					"id" : "obj-47",
					"maxclass" : "newobj",
					"numinlets" : 1,
					"numoutlets" : 0,
					"patching_rect" : [ 156.0, 524.0, 72.0, 22.0 ],
					"style" : "",
					"text" : "s #0_x_pos"
				}

			}
, 			{
				"box" : 				{
					"id" : "obj-46",
					"maxclass" : "newobj",
					"numinlets" : 0,
					"numoutlets" : 1,
					"outlettype" : [ "" ],
					"patching_rect" : [ 85.5, 10.0, 70.0, 22.0 ],
					"style" : "",
					"text" : "r #0_x_pos"
				}

			}
, 			{
				"box" : 				{
					"id" : "obj-38",
					"maxclass" : "newobj",
					"numinlets" : 2,
					"numoutlets" : 2,
					"outlettype" : [ "", "" ],
					"patching_rect" : [ 550.5, 397.5, 54.0, 22.0 ],
					"style" : "",
					"text" : "route x0"
				}

			}
, 			{
				"box" : 				{
					"id" : "obj-35",
					"maxclass" : "newobj",
					"numinlets" : 2,
					"numoutlets" : 2,
					"outlettype" : [ "", "" ],
					"patching_rect" : [ 550.5, 299.0, 77.0, 22.0 ],
					"style" : "",
					"text" : "route /z_pos"
				}

			}
, 			{
				"box" : 				{
					"activebgcolor" : [ 0.0, 0.0, 0.0, 0.15 ],
					"activebgoncolor" : [ 0.792157, 0.219608, 0.133333, 1.0 ],
					"activetextcolor" : [ 1.0, 1.0, 1.0, 0.6 ],
					"activetextoncolor" : [ 1.0, 1.0, 1.0, 1.0 ],
					"annotation" : "Light to open the Encoders Editor",
					"automation" : "",
					"automationon" : "Doubled",
					"bgcolor" : [ 1.0, 1.0, 1.0, 0.2 ],
					"bgoncolor" : [ 1.0, 1.0, 1.0, 0.6 ],
					"bordercolor" : [ 1.0, 1.0, 1.0, 0.0 ],
					"focusbordercolor" : [ 1.0, 1.0, 1.0, 0.0 ],
					"fontface" : 0,
					"fontname" : "Helvetica Neue",
					"fontsize" : 12.0,
					"hint" : "Close this panel",
					"id" : "obj-28",
					"maxclass" : "live.text",
					"mode" : 0,
					"numinlets" : 1,
					"numoutlets" : 2,
					"outlettype" : [ "", "" ],
					"parameter_enable" : 1,
					"patching_rect" : [ 1076.5, 391.0, 85.0, 31.0 ],
					"presentation" : 1,
					"presentation_rect" : [ 359.374695, 320.4375, 65.625305, 30.0 ],
					"rounded" : 16.0,
					"saved_attribute_attributes" : 					{
						"valueof" : 						{
							"parameter_longname" : "Map[6]",
							"parameter_shortname" : "Map",
							"parameter_type" : 2,
							"parameter_mmax" : 1.0,
							"parameter_enum" : [ "", "Doubled" ],
							"parameter_initial" : [ 0 ],
							"parameter_defer" : 1,
							"parameter_invisible" : 2,
							"parameter_annotation_name" : "Open"
						}

					}
,
					"text" : "Close",
					"textcolor" : [ 1.0, 1.0, 1.0, 0.6 ],
					"texton" : "Free",
					"varname" : "xy_close"
				}

			}
, 			{
				"box" : 				{
					"angle" : 0.0,
					"bgcolor" : [ 0.094118, 0.113725, 0.137255, 0.21 ],
					"border" : 1,
					"bordercolor" : [ 0.415686, 0.454902, 0.52549, 1.0 ],
					"id" : "obj-30",
					"maxclass" : "panel",
					"mode" : 0,
					"numinlets" : 1,
					"numoutlets" : 0,
					"patching_rect" : [ 1194.666626, 908.0, 120.0, 120.0 ],
					"presentation" : 1,
					"presentation_rect" : [ 359.374695, 321.4375, 65.625305, 29.0 ],
					"proportion" : 0.39,
					"rounded" : 16,
					"style" : ""
				}

			}
, 			{
				"box" : 				{
					"id" : "obj-26",
					"linecount" : 2,
					"maxclass" : "message",
					"numinlets" : 2,
					"numoutlets" : 1,
					"outlettype" : [ "" ],
					"patching_rect" : [ 1464.0, 309.5, 221.0, 35.0 ],
					"style" : "",
					"text" : "window constrain 422 364.5 422 364.5, window exec"
				}

			}
, 			{
				"box" : 				{
					"id" : "obj-16",
					"linecount" : 2,
					"maxclass" : "message",
					"numinlets" : 2,
					"numoutlets" : 1,
					"outlettype" : [ "" ],
					"patching_rect" : [ 1464.0, 258.0, 215.0, 35.0 ],
					"style" : "",
					"text" : "window size 50 50 423 364.5, window exec"
				}

			}
, 			{
				"box" : 				{
					"id" : "obj-48",
					"maxclass" : "newobj",
					"numinlets" : 1,
					"numoutlets" : 1,
					"outlettype" : [ "bang" ],
					"patching_rect" : [ 1186.0, 327.5, 60.0, 22.0 ],
					"style" : "",
					"text" : "loadbang"
				}

			}
, 			{
				"box" : 				{
					"id" : "obj-50",
					"maxclass" : "message",
					"numinlets" : 2,
					"numoutlets" : 1,
					"outlettype" : [ "" ],
					"patching_rect" : [ 1186.0, 357.0, 50.0, 22.0 ],
					"style" : "",
					"text" : "expand"
				}

			}
, 			{
				"box" : 				{
					"bgmode" : 0,
					"border" : 0,
					"clickthrough" : 0,
					"enablehscroll" : 0,
					"enablevscroll" : 0,
					"id" : "obj-45",
					"lockeddragscroll" : 0,
					"maxclass" : "bpatcher",
					"name" : "acids.button.maxpat",
					"numinlets" : 4,
					"numoutlets" : 1,
					"offset" : [ 0.0, 0.0 ],
					"outlettype" : [ "" ],
					"patching_rect" : [ 1187.0, 387.0, 28.0, 27.432373 ],
					"presentation" : 1,
					"presentation_rect" : [ 172.749405, -33.932373, 25.0, 22.432373 ],
					"viewvisibility" : 1
				}

			}
, 			{
				"box" : 				{
					"id" : "obj-36",
					"maxclass" : "message",
					"numinlets" : 2,
					"numoutlets" : 1,
					"outlettype" : [ "" ],
					"patching_rect" : [ 909.0, 119.5, 29.5, 22.0 ],
					"style" : "",
					"text" : "1"
				}

			}
, 			{
				"box" : 				{
					"id" : "obj-44",
					"maxclass" : "newobj",
					"numinlets" : 1,
					"numoutlets" : 1,
					"outlettype" : [ "bang" ],
					"patching_rect" : [ 846.0, 83.0, 60.0, 22.0 ],
					"style" : "",
					"text" : "loadbang"
				}

			}
, 			{
				"box" : 				{
					"id" : "obj-43",
					"maxclass" : "message",
					"numinlets" : 2,
					"numoutlets" : 1,
					"outlettype" : [ "" ],
					"patching_rect" : [ 846.0, 119.5, 44.0, 22.0 ],
					"style" : "",
					"text" : "freeze"
				}

			}
, 			{
				"box" : 				{
					"bgmode" : 0,
					"border" : 0,
					"clickthrough" : 0,
					"enablehscroll" : 0,
					"enablevscroll" : 0,
					"hint" : "(De)activate freeze mode",
					"id" : "obj-42",
					"lockeddragscroll" : 0,
					"maxclass" : "bpatcher",
					"name" : "acids.button.maxpat",
					"numinlets" : 4,
					"numoutlets" : 1,
					"offset" : [ 0.0, 0.0 ],
					"outlettype" : [ "" ],
					"patching_rect" : [ 846.0, 157.783813, 55.0, 46.432373 ],
					"presentation" : 1,
					"presentation_rect" : [ 172.749405, -58.932373, 25.0, 22.432373 ],
					"viewvisibility" : 1
				}

			}
, 			{
				"box" : 				{
					"id" : "obj-41",
					"maxclass" : "newobj",
					"numinlets" : 1,
					"numoutlets" : 1,
					"outlettype" : [ "" ],
					"patching_rect" : [ 722.666626, 129.0, 74.0, 22.0 ],
					"style" : "",
					"text" : "prepend set"
				}

			}
, 			{
				"box" : 				{
					"id" : "obj-40",
					"maxclass" : "newobj",
					"numinlets" : 1,
					"numoutlets" : 1,
					"outlettype" : [ "" ],
					"patching_rect" : [ 156.0, 392.0, 77.0, 22.0 ],
					"style" : "",
					"text" : "prepend set"
				}

			}
, 			{
				"box" : 				{
					"id" : "obj-39",
					"maxclass" : "newobj",
					"numinlets" : 2,
					"numoutlets" : 1,
					"outlettype" : [ "" ],
					"patching_rect" : [ 156.0, 362.0, 57.0, 22.0 ],
					"style" : "",
					"text" : "pak 0. 0."
				}

			}
, 			{
				"box" : 				{
					"id" : "obj-37",
					"maxclass" : "newobj",
					"numinlets" : 1,
					"numoutlets" : 1,
					"outlettype" : [ "" ],
					"patching_rect" : [ 493.333313, 195.0, 74.0, 22.0 ],
					"style" : "",
					"text" : "prepend set"
				}

			}
, 			{
				"box" : 				{
					"id" : "obj-34",
					"maxclass" : "newobj",
					"numinlets" : 1,
					"numoutlets" : 1,
					"outlettype" : [ "" ],
					"patching_rect" : [ 327.0, 195.0, 74.0, 22.0 ],
					"style" : "",
					"text" : "prepend set"
				}

			}
, 			{
				"box" : 				{
					"activedialcolor" : [ 0.802765, 0.214107, 0.169615, 1.0 ],
					"activeneedlecolor" : [ 1.0, 1.0, 1.0, 1.0 ],
					"annotation" : "Sets the relative percentage of the unprocessed vs. processed input signal to be output.",
					"focusbordercolor" : [ 1.0, 1.0, 1.0, 1.0 ],
					"fontname" : "Helvetica Neue Light",
					"fontsize" : 16.0,
					"id" : "obj-13",
					"maxclass" : "live.dial",
					"numinlets" : 1,
					"numoutlets" : 2,
					"outlettype" : [ "", "float" ],
					"panelcolor" : [ 0.32549, 0.345098, 0.372549, 1.0 ],
					"parameter_enable" : 1,
					"patching_rect" : [ 493.333313, 224.5, 44.0, 63.0 ],
					"presentation" : 1,
					"presentation_rect" : [ 385.0, 59.5, 44.0, 63.0 ],
					"prototypename" : "wet/dry",
					"saved_attribute_attributes" : 					{
						"valueof" : 						{
							"parameter_linknames" : 1,
							"parameter_longname" : "xy_y",
							"parameter_shortname" : "y",
							"parameter_type" : 1,
							"parameter_mmax" : 32.0,
							"parameter_initial_enable" : 1,
							"parameter_initial" : [ 1.0 ],
							"parameter_unitstyle" : 0,
							"parameter_speedlim" : 0.0
						}

					}
,
					"textcolor" : [ 1.0, 1.0, 1.0, 1.0 ],
					"varname" : "xy_y"
				}

			}
, 			{
				"box" : 				{
					"activedialcolor" : [ 0.802765, 0.214107, 0.169615, 1.0 ],
					"activeneedlecolor" : [ 1.0, 1.0, 1.0, 1.0 ],
					"annotation" : "Sets the relative percentage of the unprocessed vs. processed input signal to be output.",
					"focusbordercolor" : [ 1.0, 1.0, 1.0, 1.0 ],
					"fontname" : "Helvetica Neue Light",
					"fontsize" : 16.0,
					"id" : "obj-14",
					"maxclass" : "live.dial",
					"numinlets" : 1,
					"numoutlets" : 2,
					"outlettype" : [ "", "float" ],
					"panelcolor" : [ 0.32549, 0.345098, 0.372549, 1.0 ],
					"parameter_enable" : 1,
					"patching_rect" : [ 327.0, 224.5, 44.0, 63.0 ],
					"presentation" : 1,
					"presentation_rect" : [ 350.99881, 59.5, 44.0, 63.0 ],
					"prototypename" : "wet/dry",
					"saved_attribute_attributes" : 					{
						"valueof" : 						{
							"parameter_linknames" : 1,
							"parameter_longname" : "xy_x",
							"parameter_shortname" : "x",
							"parameter_type" : 1,
							"parameter_mmax" : 32.0,
							"parameter_initial_enable" : 1,
							"parameter_initial" : [ 0 ],
							"parameter_unitstyle" : 0,
							"parameter_speedlim" : 0.0
						}

					}
,
					"textcolor" : [ 1.0, 1.0, 1.0, 1.0 ],
					"varname" : "xy_x"
				}

			}
, 			{
				"box" : 				{
					"activebgcolor" : [ 0.0, 0.0, 0.0, 0.15 ],
					"activebgoncolor" : [ 0.792157, 0.219608, 0.133333, 1.0 ],
					"activetextcolor" : [ 1.0, 1.0, 1.0, 0.6 ],
					"activetextoncolor" : [ 1.0, 1.0, 1.0, 1.0 ],
					"annotation" : "Light to open the Encoders Editor",
					"automation" : "",
					"automationon" : "Doubled",
					"bgcolor" : [ 1.0, 1.0, 1.0, 0.2 ],
					"bgoncolor" : [ 1.0, 1.0, 1.0, 0.6 ],
					"bordercolor" : [ 1.0, 1.0, 1.0, 0.0 ],
					"focusbordercolor" : [ 1.0, 1.0, 1.0, 0.0 ],
					"fontface" : 0,
					"fontname" : "Helvetica Neue",
					"fontsize" : 12.0,
					"hint" : "(De)activate freeze mode",
					"id" : "obj-22",
					"maxclass" : "live.text",
					"numinlets" : 1,
					"numoutlets" : 2,
					"outlettype" : [ "", "" ],
					"parameter_enable" : 1,
					"patching_rect" : [ 722.666626, 165.5, 85.0, 31.0 ],
					"presentation" : 1,
					"presentation_rect" : [ 359.374695, 286.4375, 65.625305, 30.0 ],
					"rounded" : 16.0,
					"saved_attribute_attributes" : 					{
						"valueof" : 						{
							"parameter_longname" : "Map[3]",
							"parameter_shortname" : "Map",
							"parameter_type" : 2,
							"parameter_mmax" : 1.0,
							"parameter_enum" : [ "", "Doubled" ],
							"parameter_initial" : [ 0 ],
							"parameter_defer" : 1,
							"parameter_invisible" : 2,
							"parameter_annotation_name" : "Open"
						}

					}
,
					"text" : "Freeze",
					"textcolor" : [ 1.0, 1.0, 1.0, 0.6 ],
					"texton" : "Free",
					"varname" : "xy_freeze"
				}

			}
, 			{
				"box" : 				{
					"angle" : 0.0,
					"bgcolor" : [ 0.094118, 0.113725, 0.137255, 0.21 ],
					"border" : 1,
					"bordercolor" : [ 0.415686, 0.454902, 0.52549, 1.0 ],
					"id" : "obj-24",
					"maxclass" : "panel",
					"mode" : 0,
					"numinlets" : 1,
					"numoutlets" : 0,
					"patching_rect" : [ 1179.666626, 893.0, 120.0, 120.0 ],
					"presentation" : 1,
					"presentation_rect" : [ 359.374695, 287.4375, 65.625305, 29.0 ],
					"proportion" : 0.39,
					"rounded" : 16,
					"style" : ""
				}

			}
, 			{
				"box" : 				{
					"id" : "obj-25",
					"linecolor" : [ 0.349151, 0.377564, 0.442529, 1.0 ],
					"maxclass" : "live.line",
					"numinlets" : 1,
					"numoutlets" : 0,
					"patching_rect" : [ 1252.333374, 815.0, 33.0, 63.0 ],
					"presentation" : 1,
					"presentation_rect" : [ 351.99881, 14.828186, 19.0, 328.671814 ]
				}

			}
, 			{
				"box" : 				{
					"bgcolor" : [ 0.866667, 0.866667, 0.866667, 0.0 ],
					"bgfillcolor_angle" : 270.0,
					"bgfillcolor_autogradient" : 0.79,
					"bgfillcolor_color" : [ 0.290196, 0.309804, 0.301961, 1.0 ],
					"bgfillcolor_color1" : [ 0.866667, 0.866667, 0.866667, 0.0 ],
					"bgfillcolor_color2" : [ 0.685, 0.685, 0.685, 1.0 ],
					"bgfillcolor_proportion" : 0.39,
					"bgfillcolor_type" : "gradient",
					"fontname" : "Helvetica Neue UltraLight",
					"fontsize" : 36.0,
					"gradient" : 0,
					"id" : "obj-27",
					"ignoreclick" : 1,
					"maxclass" : "message",
					"numinlets" : 2,
					"numoutlets" : 1,
					"outlettype" : [ "" ],
					"patching_rect" : [ 1333.333374, 847.0, 49.0, 50.0 ],
					"presentation" : 1,
					"presentation_rect" : [ 375.374695, -4.5, 46.0, 50.0 ],
					"style" : "",
					"text" : "xy",
					"textcolor" : [ 1.0, 1.0, 1.0, 0.3 ]
				}

			}
, 			{
				"box" : 				{
					"bgcolor" : [ 0.0, 0.0, 0.0, 0.0 ],
					"bottomvalue" : -300,
					"color" : [ 0.941176, 0.690196, 0.196078, 1.0 ],
					"elementcolor" : [ 0.792157, 0.219608, 0.133333, 1.0 ],
					"id" : "obj-32",
					"invisiblebkgnd" : 1,
					"leftvalue" : -300,
					"maxclass" : "pictslider",
					"numinlets" : 2,
					"numoutlets" : 2,
					"outlettype" : [ "int", "int" ],
					"parameter_enable" : 1,
					"patching_rect" : [ 156.0, 424.5, 116.0, 88.0 ],
					"presentation" : 1,
					"presentation_rect" : [ 10.0, 4.328186, 333.0, 349.343628 ],
					"rightvalue" : 300,
					"saved_attribute_attributes" : 					{
						"valueof" : 						{
							"parameter_longname" : "pictslider[1]",
							"parameter_shortname" : "pictslider",
							"parameter_type" : 3,
							"parameter_invisible" : 1
						}

					}
,
					"style" : "",
					"topvalue" : 300,
					"varname" : "xy_pad_small"
				}

			}
, 			{
				"box" : 				{
					"angle" : 0.0,
					"bgcolor" : [ 0.094118, 0.113725, 0.137255, 0.21 ],
					"border" : 1,
					"bordercolor" : [ 0.415686, 0.454902, 0.52549, 1.0 ],
					"id" : "obj-33",
					"maxclass" : "panel",
					"mode" : 0,
					"numinlets" : 1,
					"numoutlets" : 0,
					"patching_rect" : [ 1318.333374, 893.0, 120.0, 120.0 ],
					"presentation" : 1,
					"presentation_rect" : [ 1.5, 2.5, 430.5, 358.0 ],
					"proportion" : 0.39,
					"rounded" : 16,
					"style" : ""
				}

			}
, 			{
				"box" : 				{
					"id" : "obj-31",
					"maxclass" : "message",
					"numinlets" : 2,
					"numoutlets" : 1,
					"outlettype" : [ "" ],
					"patching_rect" : [ 1104.0, 466.0, 39.0, 22.0 ],
					"style" : "",
					"text" : "close"
				}

			}
, 			{
				"box" : 				{
					"comment" : "",
					"id" : "obj-29",
					"index" : 0,
					"maxclass" : "outlet",
					"numinlets" : 1,
					"numoutlets" : 0,
					"patching_rect" : [ 1104.0, 510.0, 30.0, 30.0 ],
					"style" : ""
				}

			}
, 			{
				"box" : 				{
					"id" : "obj-20",
					"maxclass" : "message",
					"numinlets" : 2,
					"numoutlets" : 1,
					"outlettype" : [ "" ],
					"patching_rect" : [ 1187.0, 466.0, 37.0, 22.0 ],
					"style" : "",
					"text" : "open"
				}

			}
, 			{
				"box" : 				{
					"comment" : "",
					"id" : "obj-2",
					"index" : 0,
					"maxclass" : "inlet",
					"numinlets" : 0,
					"numoutlets" : 1,
					"outlettype" : [ "" ],
					"patching_rect" : [ 550.5, 245.0, 39.0, 39.0 ],
					"style" : ""
				}

			}
, 			{
				"box" : 				{
					"id" : "obj-8",
					"maxclass" : "message",
					"numinlets" : 2,
					"numoutlets" : 1,
					"outlettype" : [ "" ],
					"patching_rect" : [ 1272.0, 559.0, 112.0, 22.0 ],
					"style" : "",
					"text" : "This is a window"
				}

			}
, 			{
				"box" : 				{
					"id" : "obj-3",
					"maxclass" : "newobj",
					"numinlets" : 1,
					"numoutlets" : 1,
					"outlettype" : [ "" ],
					"patching_rect" : [ 1272.0, 524.0, 102.0, 22.0 ],
					"style" : "",
					"text" : "prepend This is a"
				}

			}
, 			{
				"box" : 				{
					"id" : "obj-23",
					"linecount" : 2,
					"maxclass" : "message",
					"numinlets" : 2,
					"numoutlets" : 1,
					"outlettype" : [ "" ],
					"patching_rect" : [ 1386.0, 278.0, 53.0, 35.0 ],
					"style" : "",
					"text" : "offset 0 170"
				}

			}
, 			{
				"box" : 				{
					"id" : "obj-21",
					"maxclass" : "newobj",
					"numinlets" : 1,
					"numoutlets" : 1,
					"outlettype" : [ "bang" ],
					"patching_rect" : [ 1315.0, 238.5, 60.0, 22.0 ],
					"style" : "",
					"text" : "loadbang"
				}

			}
, 			{
				"box" : 				{
					"id" : "obj-19",
					"maxclass" : "message",
					"numinlets" : 2,
					"numoutlets" : 1,
					"outlettype" : [ "" ],
					"patching_rect" : [ 1340.5, 489.0, 51.0, 22.0 ],
					"style" : "",
					"text" : "window"
				}

			}
, 			{
				"box" : 				{
					"id" : "obj-18",
					"maxclass" : "message",
					"numinlets" : 2,
					"numoutlets" : 1,
					"outlettype" : [ "" ],
					"patching_rect" : [ 1272.0, 489.0, 57.0, 22.0 ],
					"style" : "",
					"text" : "bpatcher"
				}

			}
, 			{
				"box" : 				{
					"id" : "obj-17",
					"maxclass" : "newobj",
					"numinlets" : 3,
					"numoutlets" : 3,
					"outlettype" : [ "", "", "" ],
					"patching_rect" : [ 1272.0, 453.0, 58.0, 22.0 ],
					"style" : "",
					"text" : "route 0 1"
				}

			}
, 			{
				"box" : 				{
					"id" : "obj-15",
					"maxclass" : "button",
					"numinlets" : 1,
					"numoutlets" : 1,
					"outlettype" : [ "bang" ],
					"patching_rect" : [ 1272.0, 316.0, 24.0, 24.0 ],
					"style" : ""
				}

			}
, 			{
				"box" : 				{
					"id" : "obj-12",
					"maxclass" : "button",
					"numinlets" : 1,
					"numoutlets" : 1,
					"outlettype" : [ "bang" ],
					"patching_rect" : [ 1315.0, 355.0, 24.0, 24.0 ],
					"style" : ""
				}

			}
, 			{
				"box" : 				{
					"id" : "obj-11",
					"maxclass" : "newobj",
					"numinlets" : 2,
					"numoutlets" : 1,
					"outlettype" : [ "int" ],
					"patching_rect" : [ 1272.0, 421.0, 33.0, 22.0 ],
					"style" : "",
					"text" : "int 0"
				}

			}
, 			{
				"box" : 				{
					"id" : "obj-10",
					"maxclass" : "message",
					"numinlets" : 2,
					"numoutlets" : 1,
					"outlettype" : [ "" ],
					"patching_rect" : [ 1315.0, 387.0, 29.5, 22.0 ],
					"style" : "",
					"text" : "1"
				}

			}
, 			{
				"box" : 				{
					"id" : "obj-9",
					"maxclass" : "message",
					"numinlets" : 2,
					"numoutlets" : 1,
					"outlettype" : [ "" ],
					"patching_rect" : [ 1272.0, 278.0, 96.0, 22.0 ],
					"style" : "",
					"text" : "window getflags"
				}

			}
, 			{
				"box" : 				{
					"id" : "obj-7",
					"maxclass" : "newobj",
					"numinlets" : 1,
					"numoutlets" : 2,
					"outlettype" : [ "", "" ],
					"patching_rect" : [ 1315.0, 316.0, 69.0, 22.0 ],
					"save" : [ "#N", "thispatcher", ";", "#Q", "end", ";" ],
					"style" : "",
					"text" : "thispatcher"
				}

			}
, 			{
				"box" : 				{
					"activedialcolor" : [ 0.802765, 0.214107, 0.169615, 1.0 ],
					"activeneedlecolor" : [ 1.0, 1.0, 1.0, 1.0 ],
					"annotation" : "Sets the relative percentage of the unprocessed vs. processed input signal to be output.",
					"appearance" : 1,
					"focusbordercolor" : [ 1.0, 1.0, 1.0, 1.0 ],
					"fontname" : "Helvetica Neue Light",
					"id" : "obj-6",
					"maxclass" : "live.dial",
					"numinlets" : 1,
					"numoutlets" : 2,
					"outlettype" : [ "", "float" ],
					"panelcolor" : [ 0.32549, 0.345098, 0.372549, 1.0 ],
					"parameter_enable" : 1,
					"patching_rect" : [ 425.0, 262.5, 25.0, 36.0 ],
					"presentation" : 1,
					"presentation_rect" : [ 172.749405, -104.5, 25.0, 36.0 ],
					"prototypename" : "wet/dry",
					"saved_attribute_attributes" : 					{
						"valueof" : 						{
							"parameter_linknames" : 1,
							"parameter_longname" : "xy_y_small",
							"parameter_shortname" : "y",
							"parameter_type" : 1,
							"parameter_mmax" : 32.0,
							"parameter_initial_enable" : 1,
							"parameter_initial" : [ 1.0 ],
							"parameter_unitstyle" : 0,
							"parameter_speedlim" : 0.0
						}

					}
,
					"textcolor" : [ 1.0, 1.0, 1.0, 1.0 ],
					"varname" : "xy_y_small"
				}

			}
, 			{
				"box" : 				{
					"activedialcolor" : [ 0.802765, 0.214107, 0.169615, 1.0 ],
					"activeneedlecolor" : [ 1.0, 1.0, 1.0, 1.0 ],
					"annotation" : "Sets the relative percentage of the unprocessed vs. processed input signal to be output.",
					"appearance" : 1,
					"focusbordercolor" : [ 1.0, 1.0, 1.0, 1.0 ],
					"fontname" : "Helvetica Neue Light",
					"id" : "obj-157",
					"maxclass" : "live.dial",
					"numinlets" : 1,
					"numoutlets" : 2,
					"outlettype" : [ "", "float" ],
					"panelcolor" : [ 0.32549, 0.345098, 0.372549, 1.0 ],
					"parameter_enable" : 1,
					"patching_rect" : [ 254.0, 262.5, 25.0, 36.0 ],
					"presentation" : 1,
					"presentation_rect" : [ 171.749405, -139.5, 25.0, 36.0 ],
					"prototypename" : "wet/dry",
					"saved_attribute_attributes" : 					{
						"valueof" : 						{
							"parameter_linknames" : 1,
							"parameter_longname" : "xy_x_small",
							"parameter_shortname" : "x",
							"parameter_type" : 1,
							"parameter_mmax" : 32.0,
							"parameter_initial_enable" : 1,
							"parameter_initial" : [ 0 ],
							"parameter_unitstyle" : 0,
							"parameter_speedlim" : 0.0
						}

					}
,
					"textcolor" : [ 1.0, 1.0, 1.0, 1.0 ],
					"varname" : "xy_x_small"
				}

			}
, 			{
				"box" : 				{
					"comment" : "",
					"id" : "obj-5",
					"index" : 0,
					"maxclass" : "outlet",
					"numinlets" : 1,
					"numoutlets" : 0,
					"patching_rect" : [ 741.333313, 296.0, 30.0, 30.0 ],
					"style" : ""
				}

			}
, 			{
				"box" : 				{
					"id" : "obj-49",
					"maxclass" : "newobj",
					"numinlets" : 1,
					"numoutlets" : 1,
					"outlettype" : [ "" ],
					"patching_rect" : [ 741.333313, 266.432373, 154.0, 22.0 ],
					"style" : "",
					"text" : "prepend /set_freeze_mode"
				}

			}
, 			{
				"box" : 				{
					"id" : "obj-90",
					"linecolor" : [ 0.349151, 0.377564, 0.442529, 1.0 ],
					"maxclass" : "live.line",
					"numinlets" : 1,
					"numoutlets" : 0,
					"patching_rect" : [ 990.0, 666.0, 33.0, 63.0 ],
					"presentation" : 1,
					"presentation_rect" : [ 163.99881, -161.843628, 19.0, 151.343628 ]
				}

			}
, 			{
				"box" : 				{
					"bgcolor" : [ 0.866667, 0.866667, 0.866667, 0.0 ],
					"bgfillcolor_angle" : 270.0,
					"bgfillcolor_autogradient" : 0.79,
					"bgfillcolor_color" : [ 0.290196, 0.309804, 0.301961, 1.0 ],
					"bgfillcolor_color1" : [ 0.866667, 0.866667, 0.866667, 0.0 ],
					"bgfillcolor_color2" : [ 0.685, 0.685, 0.685, 1.0 ],
					"bgfillcolor_proportion" : 0.39,
					"bgfillcolor_type" : "gradient",
					"fontname" : "Helvetica Neue UltraLight",
					"fontsize" : 16.0,
					"gradient" : 0,
					"id" : "obj-162",
					"ignoreclick" : 1,
					"maxclass" : "message",
					"numinlets" : 2,
					"numoutlets" : 1,
					"outlettype" : [ "" ],
					"patching_rect" : [ 1071.0, 698.0, 28.0, 27.0 ],
					"presentation" : 1,
					"presentation_rect" : [ 172.749405, -170.5, 26.0, 27.0 ],
					"style" : "",
					"text" : "xy",
					"textcolor" : [ 1.0, 1.0, 1.0, 0.3 ]
				}

			}
, 			{
				"box" : 				{
					"comment" : "",
					"id" : "obj-4",
					"index" : 0,
					"maxclass" : "outlet",
					"numinlets" : 1,
					"numoutlets" : 0,
					"patching_rect" : [ 28.0, 609.0, 30.0, 30.0 ],
					"style" : ""
				}

			}
, 			{
				"box" : 				{
					"comment" : "",
					"id" : "obj-1",
					"index" : 0,
					"maxclass" : "inlet",
					"numinlets" : 0,
					"numoutlets" : 1,
					"outlettype" : [ "" ],
					"patching_rect" : [ 28.0, 10.0, 30.0, 30.0 ],
					"style" : ""
				}

			}
, 			{
				"box" : 				{
					"id" : "obj-218",
					"maxclass" : "message",
					"numinlets" : 2,
					"numoutlets" : 1,
					"outlettype" : [ "" ],
					"patching_rect" : [ 425.0, 231.0, 29.5, 22.0 ],
					"style" : "",
					"text" : "1"
				}

			}
, 			{
				"box" : 				{
					"id" : "obj-219",
					"maxclass" : "newobj",
					"numinlets" : 1,
					"numoutlets" : 1,
					"outlettype" : [ "bang" ],
					"patching_rect" : [ 425.0, 195.0, 60.0, 22.0 ],
					"style" : "",
					"text" : "loadbang"
				}

			}
, 			{
				"box" : 				{
					"id" : "obj-217",
					"maxclass" : "message",
					"numinlets" : 2,
					"numoutlets" : 1,
					"outlettype" : [ "" ],
					"patching_rect" : [ 254.0, 231.0, 33.0, 22.0 ],
					"style" : "",
					"text" : "int 0"
				}

			}
, 			{
				"box" : 				{
					"id" : "obj-212",
					"maxclass" : "newobj",
					"numinlets" : 1,
					"numoutlets" : 1,
					"outlettype" : [ "bang" ],
					"patching_rect" : [ 254.0, 195.0, 60.0, 22.0 ],
					"style" : "",
					"text" : "loadbang"
				}

			}
, 			{
				"box" : 				{
					"id" : "obj-205",
					"maxclass" : "newobj",
					"numinlets" : 2,
					"numoutlets" : 1,
					"outlettype" : [ "float" ],
					"patching_rect" : [ 93.0, 296.0, 41.0, 22.0 ],
					"style" : "",
					"text" : "/ 100."
				}

			}
, 			{
				"box" : 				{
					"id" : "obj-204",
					"maxclass" : "newobj",
					"numinlets" : 2,
					"numoutlets" : 1,
					"outlettype" : [ "float" ],
					"patching_rect" : [ 28.0, 296.0, 41.0, 22.0 ],
					"style" : "",
					"text" : "/ 100."
				}

			}
, 			{
				"box" : 				{
					"id" : "obj-195",
					"maxclass" : "newobj",
					"numinlets" : 4,
					"numoutlets" : 1,
					"outlettype" : [ "" ],
					"patching_rect" : [ 28.0, 335.5, 83.0, 22.0 ],
					"style" : "",
					"text" : "pack 0. 0. 0 0"
				}

			}
, 			{
				"box" : 				{
					"bgcolor" : [ 0.0, 0.0, 0.0, 0.0 ],
					"bottomvalue" : -300,
					"color" : [ 0.941176, 0.690196, 0.196078, 1.0 ],
					"elementcolor" : [ 0.792157, 0.219608, 0.133333, 1.0 ],
					"id" : "obj-192",
					"invisiblebkgnd" : 1,
					"leftvalue" : -300,
					"maxclass" : "pictslider",
					"numinlets" : 2,
					"numoutlets" : 2,
					"outlettype" : [ "int", "int" ],
					"parameter_enable" : 1,
					"patching_rect" : [ 28.0, 73.932373, 185.0, 175.0 ],
					"presentation" : 1,
					"presentation_rect" : [ 7.0, -161.843628, 151.0, 151.343628 ],
					"rightvalue" : 300,
					"saved_attribute_attributes" : 					{
						"valueof" : 						{
							"parameter_longname" : "pictslider",
							"parameter_shortname" : "pictslider",
							"parameter_type" : 3,
							"parameter_invisible" : 1
						}

					}
,
					"style" : "",
					"topvalue" : 300,
					"varname" : "xy_pad_large"
				}

			}
, 			{
				"box" : 				{
					"angle" : 0.0,
					"bgcolor" : [ 0.094118, 0.113725, 0.137255, 0.21 ],
					"border" : 1,
					"bordercolor" : [ 0.415686, 0.454902, 0.52549, 1.0 ],
					"id" : "obj-95",
					"maxclass" : "panel",
					"mode" : 0,
					"numinlets" : 1,
					"numoutlets" : 0,
					"patching_rect" : [ 1059.0, 744.0, 120.0, 120.0 ],
					"presentation" : 1,
					"presentation_rect" : [ 1.5, -168.5, 204.5, 165.0 ],
					"proportion" : 0.39,
					"rounded" : 16,
					"style" : ""
				}

			}
, 			{
				"box" : 				{
					"bgmode" : 0,
					"border" : 0,
					"clickthrough" : 0,
					"enablehscroll" : 0,
					"enablevscroll" : 0,
					"id" : "obj-52",
					"lockeddragscroll" : 0,
					"maxclass" : "bpatcher",
					"name" : "acids.leap.maxpat",
					"numinlets" : 1,
					"numoutlets" : 2,
					"offset" : [ 0.0, 370.0 ],
					"outlettype" : [ "", "" ],
					"patching_rect" : [ 417.0, 576.0, 456.0, 399.0 ],
					"presentation" : 1,
					"presentation_rect" : [ 2.5, -4.5, 432.5, 371.921814 ],
					"viewvisibility" : 1
				}

			}
 ],
		"lines" : [ 			{
				"patchline" : 				{
					"destination" : [ "obj-192", 0 ],
					"source" : [ "obj-1", 0 ]
				}

			}
, 			{
				"patchline" : 				{
					"destination" : [ "obj-11", 0 ],
					"source" : [ "obj-10", 0 ]
				}

			}
, 			{
				"patchline" : 				{
					"destination" : [ "obj-17", 0 ],
					"source" : [ "obj-11", 0 ]
				}

			}
, 			{
				"patchline" : 				{
					"destination" : [ "obj-10", 0 ],
					"source" : [ "obj-12", 0 ]
				}

			}
, 			{
				"patchline" : 				{
					"destination" : [ "obj-6", 0 ],
					"midpoints" : [ 502.833313, 306.0, 462.0, 306.0, 462.0, 258.0, 434.5, 258.0 ],
					"source" : [ "obj-13", 0 ]
				}

			}
, 			{
				"patchline" : 				{
					"destination" : [ "obj-157", 0 ],
					"midpoints" : [ 336.5, 306.0, 291.0, 306.0, 291.0, 258.0, 263.5, 258.0 ],
					"source" : [ "obj-14", 0 ]
				}

			}
, 			{
				"patchline" : 				{
					"destination" : [ "obj-11", 0 ],
					"source" : [ "obj-15", 0 ]
				}

			}
, 			{
				"patchline" : 				{
					"destination" : [ "obj-195", 2 ],
					"midpoints" : [ 263.5, 326.5, 80.166667, 326.5 ],
					"order" : 3,
					"source" : [ "obj-157", 0 ]
				}

			}
, 			{
				"patchline" : 				{
					"destination" : [ "obj-34", 0 ],
					"midpoints" : [ 263.5, 305.0, 240.0, 305.0, 240.0, 180.0, 336.5, 180.0 ],
					"order" : 1,
					"source" : [ "obj-157", 0 ]
				}

			}
, 			{
				"patchline" : 				{
					"destination" : [ "obj-56", 0 ],
					"order" : 2,
					"source" : [ "obj-157", 0 ]
				}

			}
, 			{
				"patchline" : 				{
					"destination" : [ "obj-71", 0 ],
					"order" : 0,
					"source" : [ "obj-157", 0 ]
				}

			}
, 			{
				"patchline" : 				{
					"destination" : [ "obj-7", 0 ],
					"source" : [ "obj-16", 0 ]
				}

			}
, 			{
				"patchline" : 				{
					"destination" : [ "obj-18", 0 ],
					"source" : [ "obj-17", 0 ]
				}

			}
, 			{
				"patchline" : 				{
					"destination" : [ "obj-19", 0 ],
					"source" : [ "obj-17", 1 ]
				}

			}
, 			{
				"patchline" : 				{
					"destination" : [ "obj-3", 0 ],
					"source" : [ "obj-18", 0 ]
				}

			}
, 			{
				"patchline" : 				{
					"destination" : [ "obj-3", 0 ],
					"source" : [ "obj-19", 0 ]
				}

			}
, 			{
				"patchline" : 				{
					"destination" : [ "obj-204", 0 ],
					"order" : 1,
					"source" : [ "obj-192", 0 ]
				}

			}
, 			{
				"patchline" : 				{
					"destination" : [ "obj-205", 0 ],
					"midpoints" : [ 203.5, 286.25, 102.5, 286.25 ],
					"order" : 1,
					"source" : [ "obj-192", 1 ]
				}

			}
, 			{
				"patchline" : 				{
					"destination" : [ "obj-39", 1 ],
					"order" : 0,
					"source" : [ "obj-192", 1 ]
				}

			}
, 			{
				"patchline" : 				{
					"destination" : [ "obj-39", 0 ],
					"midpoints" : [ 37.5, 282.0, 165.5, 282.0 ],
					"order" : 0,
					"source" : [ "obj-192", 0 ]
				}

			}
, 			{
				"patchline" : 				{
					"destination" : [ "obj-79", 0 ],
					"source" : [ "obj-195", 0 ]
				}

			}
, 			{
				"patchline" : 				{
					"destination" : [ "obj-35", 0 ],
					"source" : [ "obj-2", 0 ]
				}

			}
, 			{
				"patchline" : 				{
					"destination" : [ "obj-29", 0 ],
					"source" : [ "obj-20", 0 ]
				}

			}
, 			{
				"patchline" : 				{
					"destination" : [ "obj-195", 0 ],
					"source" : [ "obj-204", 0 ]
				}

			}
, 			{
				"patchline" : 				{
					"destination" : [ "obj-195", 1 ],
					"midpoints" : [ 102.5, 323.25, 58.833333, 323.25 ],
					"source" : [ "obj-205", 0 ]
				}

			}
, 			{
				"patchline" : 				{
					"destination" : [ "obj-23", 0 ],
					"midpoints" : [ 1324.5, 266.25, 1395.5, 266.25 ],
					"order" : 0,
					"source" : [ "obj-21", 0 ]
				}

			}
, 			{
				"patchline" : 				{
					"destination" : [ "obj-9", 0 ],
					"midpoints" : [ 1324.5, 266.25, 1281.5, 266.25 ],
					"order" : 1,
					"source" : [ "obj-21", 0 ]
				}

			}
, 			{
				"patchline" : 				{
					"destination" : [ "obj-217", 0 ],
					"source" : [ "obj-212", 0 ]
				}

			}
, 			{
				"patchline" : 				{
					"destination" : [ "obj-157", 0 ],
					"source" : [ "obj-217", 0 ]
				}

			}
, 			{
				"patchline" : 				{
					"destination" : [ "obj-6", 0 ],
					"source" : [ "obj-218", 0 ]
				}

			}
, 			{
				"patchline" : 				{
					"destination" : [ "obj-218", 0 ],
					"source" : [ "obj-219", 0 ]
				}

			}
, 			{
				"patchline" : 				{
					"destination" : [ "obj-42", 0 ],
					"source" : [ "obj-22", 0 ]
				}

			}
, 			{
				"patchline" : 				{
					"destination" : [ "obj-7", 0 ],
					"midpoints" : [ 1395.5, 308.5, 1324.5, 308.5 ],
					"source" : [ "obj-23", 0 ]
				}

			}
, 			{
				"patchline" : 				{
					"destination" : [ "obj-7", 0 ],
					"source" : [ "obj-26", 0 ]
				}

			}
, 			{
				"patchline" : 				{
					"destination" : [ "obj-31", 0 ],
					"source" : [ "obj-28", 0 ]
				}

			}
, 			{
				"patchline" : 				{
					"destination" : [ "obj-8", 1 ],
					"midpoints" : [ 1281.5, 552.0, 1374.5, 552.0 ],
					"source" : [ "obj-3", 0 ]
				}

			}
, 			{
				"patchline" : 				{
					"destination" : [ "obj-29", 0 ],
					"midpoints" : [ 1113.5, 498.0, 1113.5, 498.0 ],
					"source" : [ "obj-31", 0 ]
				}

			}
, 			{
				"patchline" : 				{
					"destination" : [ "obj-47", 0 ],
					"source" : [ "obj-32", 0 ]
				}

			}
, 			{
				"patchline" : 				{
					"destination" : [ "obj-54", 0 ],
					"source" : [ "obj-32", 1 ]
				}

			}
, 			{
				"patchline" : 				{
					"destination" : [ "obj-14", 0 ],
					"source" : [ "obj-34", 0 ]
				}

			}
, 			{
				"patchline" : 				{
					"destination" : [ "obj-59", 0 ],
					"source" : [ "obj-35", 0 ]
				}

			}
, 			{
				"patchline" : 				{
					"destination" : [ "obj-42", 2 ],
					"source" : [ "obj-36", 0 ]
				}

			}
, 			{
				"patchline" : 				{
					"destination" : [ "obj-13", 0 ],
					"source" : [ "obj-37", 0 ]
				}

			}
, 			{
				"patchline" : 				{
					"destination" : [ "obj-67", 0 ],
					"source" : [ "obj-38", 0 ]
				}

			}
, 			{
				"patchline" : 				{
					"destination" : [ "obj-40", 0 ],
					"source" : [ "obj-39", 0 ]
				}

			}
, 			{
				"patchline" : 				{
					"destination" : [ "obj-32", 0 ],
					"source" : [ "obj-40", 0 ]
				}

			}
, 			{
				"patchline" : 				{
					"destination" : [ "obj-22", 0 ],
					"source" : [ "obj-41", 0 ]
				}

			}
, 			{
				"patchline" : 				{
					"destination" : [ "obj-41", 0 ],
					"order" : 1,
					"source" : [ "obj-42", 0 ]
				}

			}
, 			{
				"patchline" : 				{
					"destination" : [ "obj-49", 0 ],
					"order" : 0,
					"source" : [ "obj-42", 0 ]
				}

			}
, 			{
				"patchline" : 				{
					"destination" : [ "obj-42", 0 ],
					"source" : [ "obj-43", 0 ]
				}

			}
, 			{
				"patchline" : 				{
					"destination" : [ "obj-36", 0 ],
					"order" : 0,
					"source" : [ "obj-44", 0 ]
				}

			}
, 			{
				"patchline" : 				{
					"destination" : [ "obj-43", 0 ],
					"order" : 1,
					"source" : [ "obj-44", 0 ]
				}

			}
, 			{
				"patchline" : 				{
					"destination" : [ "obj-20", 0 ],
					"source" : [ "obj-45", 0 ]
				}

			}
, 			{
				"patchline" : 				{
					"destination" : [ "obj-77", 0 ],
					"source" : [ "obj-46", 0 ]
				}

			}
, 			{
				"patchline" : 				{
					"destination" : [ "obj-50", 0 ],
					"source" : [ "obj-48", 0 ]
				}

			}
, 			{
				"patchline" : 				{
					"destination" : [ "obj-5", 0 ],
					"source" : [ "obj-49", 0 ]
				}

			}
, 			{
				"patchline" : 				{
					"destination" : [ "obj-45", 0 ],
					"source" : [ "obj-50", 0 ]
				}

			}
, 			{
				"patchline" : 				{
					"destination" : [ "obj-53", 0 ],
					"midpoints" : [ 863.5, 984.0, 896.0, 984.0, 896.0, 534.0, 426.5, 534.0 ],
					"source" : [ "obj-52", 1 ]
				}

			}
, 			{
				"patchline" : 				{
					"destination" : [ "obj-52", 0 ],
					"source" : [ "obj-53", 0 ]
				}

			}
, 			{
				"patchline" : 				{
					"destination" : [ "obj-78", 0 ],
					"source" : [ "obj-55", 0 ]
				}

			}
, 			{
				"patchline" : 				{
					"destination" : [ "obj-57", 0 ],
					"source" : [ "obj-56", 0 ]
				}

			}
, 			{
				"patchline" : 				{
					"destination" : [ "obj-68", 0 ],
					"source" : [ "obj-58", 0 ]
				}

			}
, 			{
				"patchline" : 				{
					"destination" : [ "obj-38", 0 ],
					"order" : 1,
					"source" : [ "obj-59", 0 ]
				}

			}
, 			{
				"patchline" : 				{
					"destination" : [ "obj-58", 0 ],
					"midpoints" : [ 560.0, 357.5, 693.5, 357.5 ],
					"order" : 0,
					"source" : [ "obj-59", 0 ]
				}

			}
, 			{
				"patchline" : 				{
					"destination" : [ "obj-195", 3 ],
					"midpoints" : [ 434.5, 331.5, 101.5, 331.5 ],
					"order" : 3,
					"source" : [ "obj-6", 0 ]
				}

			}
, 			{
				"patchline" : 				{
					"destination" : [ "obj-37", 0 ],
					"midpoints" : [ 434.5, 300.0, 411.0, 300.0, 411.0, 180.0, 502.833313, 180.0 ],
					"order" : 0,
					"source" : [ "obj-6", 0 ]
				}

			}
, 			{
				"patchline" : 				{
					"destination" : [ "obj-61", 0 ],
					"order" : 1,
					"source" : [ "obj-6", 0 ]
				}

			}
, 			{
				"patchline" : 				{
					"destination" : [ "obj-71", 1 ],
					"order" : 2,
					"source" : [ "obj-6", 0 ]
				}

			}
, 			{
				"patchline" : 				{
					"destination" : [ "obj-60", 0 ],
					"source" : [ "obj-61", 0 ]
				}

			}
, 			{
				"patchline" : 				{
					"destination" : [ "obj-58", 1 ],
					"source" : [ "obj-62", 0 ]
				}

			}
, 			{
				"patchline" : 				{
					"destination" : [ "obj-38", 1 ],
					"source" : [ "obj-63", 0 ]
				}

			}
, 			{
				"patchline" : 				{
					"destination" : [ "obj-65", 0 ],
					"source" : [ "obj-67", 0 ]
				}

			}
, 			{
				"patchline" : 				{
					"destination" : [ "obj-64", 0 ],
					"source" : [ "obj-68", 0 ]
				}

			}
, 			{
				"patchline" : 				{
					"destination" : [ "obj-5", 0 ],
					"midpoints" : [ 918.5, 291.716187, 750.833313, 291.716187 ],
					"source" : [ "obj-69", 0 ]
				}

			}
, 			{
				"patchline" : 				{
					"destination" : [ "obj-12", 0 ],
					"source" : [ "obj-7", 0 ]
				}

			}
, 			{
				"patchline" : 				{
					"destination" : [ "obj-72", 0 ],
					"source" : [ "obj-71", 0 ]
				}

			}
, 			{
				"patchline" : 				{
					"destination" : [ "obj-66", 0 ],
					"source" : [ "obj-73", 0 ]
				}

			}
, 			{
				"patchline" : 				{
					"destination" : [ "obj-192", 0 ],
					"source" : [ "obj-77", 0 ]
				}

			}
, 			{
				"patchline" : 				{
					"destination" : [ "obj-192", 1 ],
					"source" : [ "obj-78", 0 ]
				}

			}
, 			{
				"patchline" : 				{
					"destination" : [ "obj-4", 0 ],
					"source" : [ "obj-79", 0 ]
				}

			}
, 			{
				"patchline" : 				{
					"destination" : [ "obj-69", 0 ],
					"source" : [ "obj-80", 0 ]
				}

			}
, 			{
				"patchline" : 				{
					"destination" : [ "obj-69", 0 ],
					"midpoints" : [ 1057.0, 257.182373, 918.5, 257.182373 ],
					"source" : [ "obj-81", 0 ]
				}

			}
, 			{
				"patchline" : 				{
					"destination" : [ "obj-15", 0 ],
					"order" : 1,
					"source" : [ "obj-9", 0 ]
				}

			}
, 			{
				"patchline" : 				{
					"destination" : [ "obj-7", 0 ],
					"order" : 0,
					"source" : [ "obj-9", 0 ]
				}

			}
 ],
		"parameters" : 		{
			"obj-52::obj-24::obj-16" : [ "live.slider[2]", "live.slider", 0 ],
			"obj-52::obj-24::obj-100" : [ "live.dial[11]", "pitch", 0 ],
			"obj-52::obj-23::obj-102" : [ "live.dial[16]", "z", 0 ],
			"obj-28" : [ "Map[6]", "Map", 0 ],
			"obj-22" : [ "Map[3]", "Map", 0 ],
			"obj-52::obj-23::obj-17" : [ "Map[8]", "Map", 0 ],
			"obj-14" : [ "xy_x", "x", 0 ],
			"obj-52::obj-24::obj-35" : [ "live.dial[4]", "trust", 0 ],
			"obj-52::obj-23::obj-45" : [ "live.dial[21]", "fingers", 0 ],
			"obj-52::obj-23::obj-30" : [ "live.slider[5]", "live.slider", 0 ],
			"obj-52::obj-23::obj-53" : [ "live.dial[20]", "radius", 0 ],
			"obj-52::obj-24::obj-71" : [ "live.dial[9]", "pitch", 0 ],
			"obj-52::obj-24::obj-101" : [ "pos_roll[1]", "roll", 0 ],
			"obj-52::obj-23::obj-99" : [ "live.dial[14]", "yaw", 0 ],
			"obj-52::obj-24::obj-24" : [ "live.dial[2]", "z", 0 ],
			"obj-6" : [ "xy_y_small", "y", 0 ],
			"obj-52::obj-24::obj-53" : [ "live.dial[7]", "radius", 0 ],
			"obj-52::obj-23::obj-22" : [ "pos_x[3]", "x", 0 ],
			"obj-52::obj-162" : [ "Map[7]", "Map", 0 ],
			"obj-52::obj-24::obj-72" : [ "pos_roll", "roll", 0 ],
			"obj-52::obj-23::obj-35" : [ "live.dial[23]", "trust", 0 ],
			"obj-52::obj-23::obj-16" : [ "live.slider[3]", "live.slider", 0 ],
			"obj-52::obj-24::obj-102" : [ "live.dial[12]", "z", 0 ],
			"obj-52::obj-23::obj-103" : [ "live.dial[17]", "y", 0 ],
			"obj-52::obj-23::obj-72" : [ "pos_roll[3]", "roll", 0 ],
			"obj-52::obj-24::obj-30" : [ "live.slider", "live.slider", 0 ],
			"obj-157" : [ "xy_x_small", "x", 0 ],
			"obj-52::obj-23::obj-71" : [ "live.dial[19]", "pitch", 0 ],
			"obj-52::obj-24::obj-44" : [ "live.dial[5]", "pinch", 0 ],
			"obj-52::obj-23::obj-24" : [ "live.dial[25]", "z", 0 ],
			"obj-192" : [ "pictslider", "pictslider", 0 ],
			"obj-52::obj-23::obj-39" : [ "live.slider[4]", "live.slider", 0 ],
			"obj-52::obj-24::obj-22" : [ "pos_x", "x", 0 ],
			"obj-52::obj-24::obj-99" : [ "live.dial[10]", "yaw", 0 ],
			"obj-52::obj-24::obj-104" : [ "pos_x[1]", "x", 0 ],
			"obj-52::obj-23::obj-100" : [ "live.dial[15]", "pitch", 0 ],
			"obj-52::obj-49" : [ "Map[4]", "Map", 0 ],
			"obj-52::obj-24::obj-25" : [ "live.dial[3]", "grab", 0 ],
			"obj-52::obj-23::obj-104" : [ "pos_x[2]", "x", 0 ],
			"obj-52::obj-23::obj-25" : [ "live.dial[24]", "grab", 0 ],
			"obj-52::obj-24::obj-70" : [ "live.dial[8]", "yaw", 0 ],
			"obj-52::obj-23::obj-44" : [ "live.dial[22]", "pinch", 0 ],
			"obj-52::obj-24::obj-103" : [ "live.dial[13]", "y", 0 ],
			"obj-52::obj-24::obj-17" : [ "Map[1]", "Map", 0 ],
			"obj-52::obj-24::obj-23" : [ "live.dial[1]", "y", 0 ],
			"obj-52::obj-23::obj-23" : [ "live.dial[26]", "y", 0 ],
			"obj-32" : [ "pictslider[1]", "pictslider", 0 ],
			"obj-13" : [ "xy_y", "y", 0 ],
			"obj-52::obj-23::obj-70" : [ "live.dial[18]", "yaw", 0 ],
			"obj-52::obj-24::obj-45" : [ "live.dial[6]", "fingers", 0 ],
			"obj-52::obj-23::obj-101" : [ "pos_roll[2]", "roll", 0 ],
			"obj-52::obj-24::obj-39" : [ "live.slider[1]", "live.slider", 0 ]
		}
,
		"dependency_cache" : [ 			{
				"name" : "acids.leap.maxpat",
				"bootpath" : "~/Coding/git/acids/flow_synthesizer/plugin",
				"patcherrelativepath" : ".",
				"type" : "JSON",
				"implicit" : 1
			}
, 			{
				"name" : "acids.leap.hand.maxpat",
				"bootpath" : "~/Coding/git/acids/flow_synthesizer/plugin",
				"patcherrelativepath" : ".",
				"type" : "JSON",
				"implicit" : 1
			}
, 			{
				"name" : "acids.button.maxpat",
				"bootpath" : "~/Coding/git/acids/flow_synthesizer/plugin",
				"patcherrelativepath" : ".",
				"type" : "JSON",
				"implicit" : 1
			}
, 			{
				"name" : "acids.button.graphics.maxpat",
				"bootpath" : "~/Coding/git/acids/flow_synthesizer/plugin",
				"patcherrelativepath" : ".",
				"type" : "JSON",
				"implicit" : 1
			}
, 			{
				"name" : "snowflake.png",
				"bootpath" : "~/Coding/acids/demos/acids-live/orchids/graphics/icons_white_50",
				"patcherrelativepath" : "../../../../acids/demos/acids-live/orchids/graphics/icons_white_50",
				"type" : "PNG ",
				"implicit" : 1
			}
, 			{
				"name" : "expand.png",
				"bootpath" : "~/Coding/acids/demos/acids-live/orchids/graphics/icons_white_50",
				"patcherrelativepath" : "../../../../acids/demos/acids-live/orchids/graphics/icons_white_50",
				"type" : "PNG ",
				"implicit" : 1
			}
, 			{
				"name" : "leapmotion.mxo",
				"type" : "iLaX"
			}
, 			{
				"name" : "xydisplay.mxo",
				"type" : "iLaX"
			}
 ],
		"autosave" : 0,
		"styles" : [ 			{
				"name" : "AudioStatus_Menu",
				"default" : 				{
					"bgfillcolor" : 					{
						"type" : "color",
						"color" : [ 0.294118, 0.313726, 0.337255, 1 ],
						"color1" : [ 0.454902, 0.462745, 0.482353, 0.0 ],
						"color2" : [ 0.290196, 0.309804, 0.301961, 1.0 ],
						"angle" : 270.0,
						"proportion" : 0.39,
						"autogradient" : 0
					}

				}
,
				"parentstyle" : "",
				"multi" : 0
			}
, 			{
				"name" : "ksliderWhite",
				"default" : 				{
					"color" : [ 1.0, 1.0, 1.0, 1.0 ]
				}
,
				"parentstyle" : "",
				"multi" : 0
			}
, 			{
				"name" : "newobjBlue-1",
				"default" : 				{
					"accentcolor" : [ 0.317647, 0.654902, 0.976471, 1.0 ]
				}
,
				"parentstyle" : "",
				"multi" : 0
			}
, 			{
				"name" : "newobjGreen-1",
				"default" : 				{
					"accentcolor" : [ 0.0, 0.533333, 0.168627, 1.0 ]
				}
,
				"parentstyle" : "",
				"multi" : 0
			}
, 			{
				"name" : "numberGold-1",
				"default" : 				{
					"accentcolor" : [ 0.764706, 0.592157, 0.101961, 1.0 ]
				}
,
				"parentstyle" : "",
				"multi" : 0
			}
 ]
	}

}
