{
	"patcher" : 	{
		"fileversion" : 1,
		"appversion" : 		{
			"major" : 7,
			"minor" : 3,
			"revision" : 5,
			"architecture" : "x64",
			"modernui" : 1
		}
,
		"rect" : [ 370.0, 79.0, 1226.0, 937.0 ],
		"bglocked" : 0,
		"openinpresentation" : 1,
		"default_fontsize" : 12.0,
		"default_fontface" : 0,
		"default_fontname" : "Arial",
		"gridonopen" : 1,
		"gridsize" : [ 15.0, 15.0 ],
		"gridsnaponopen" : 1,
		"objectsnaponopen" : 1,
		"statusbarvisible" : 2,
		"toolbarvisible" : 1,
		"lefttoolbarpinned" : 0,
		"toptoolbarpinned" : 0,
		"righttoolbarpinned" : 0,
		"bottomtoolbarpinned" : 0,
		"toolbars_unpinned_last_save" : 0,
		"tallnewobj" : 0,
		"boxanimatetime" : 200,
		"enablehscroll" : 1,
		"enablevscroll" : 1,
		"devicewidth" : 0.0,
		"description" : "",
		"digest" : "",
		"tags" : "",
		"style" : "",
		"subpatcher_template" : "",
		"boxes" : [ 			{
				"box" : 				{
					"fontname" : "Arial",
					"fontsize" : 9.0,
					"id" : "obj-38",
					"maxclass" : "newobj",
					"numinlets" : 1,
					"numoutlets" : 4,
					"outlettype" : [ "", "", "", "" ],
					"patching_rect" : [ 884.166626, 188.0, 114.0, 19.0 ],
					"restore" : 					{
						"autoplay_start" : [ 0.0 ],
						"encode_octave_fix" : [ 0.0 ],
						"encode_pitch_shift" : [ 1.0 ],
						"keyboard" : [ 60 ],
						"midi_in" : [ 2 ]
					}
,
					"style" : "",
					"text" : "autopattr @autoname 1",
					"varname" : "u416020287"
				}

			}
, 			{
				"box" : 				{
					"id" : "obj-26",
					"maxclass" : "newobj",
					"numinlets" : 1,
					"numoutlets" : 1,
					"outlettype" : [ "" ],
					"patching_rect" : [ 953.38092, 16.0, 72.0, 22.0 ],
					"style" : "",
					"text" : "loadmess 0"
				}

			}
, 			{
				"box" : 				{
					"id" : "obj-20",
					"maxclass" : "message",
					"numinlets" : 2,
					"numoutlets" : 1,
					"outlettype" : [ "" ],
					"patching_rect" : [ 285.666626, 246.432373, 73.0, 22.0 ],
					"style" : "",
					"text" : "vzoom auto"
				}

			}
, 			{
				"box" : 				{
					"id" : "obj-39",
					"maxclass" : "message",
					"numinlets" : 2,
					"numoutlets" : 1,
					"outlettype" : [ "" ],
					"patching_rect" : [ 701.0, 236.432373, 40.0, 22.0 ],
					"style" : "",
					"text" : "clear"
				}

			}
, 			{
				"box" : 				{
					"id" : "obj-28",
					"maxclass" : "newobj",
					"numinlets" : 2,
					"numoutlets" : 1,
					"outlettype" : [ "" ],
					"patching_rect" : [ 531.428589, 452.0, 56.0, 22.0 ],
					"style" : "",
					"text" : "pack 0 0"
				}

			}
, 			{
				"box" : 				{
					"id" : "obj-50",
					"maxclass" : "newobj",
					"numinlets" : 1,
					"numoutlets" : 1,
					"outlettype" : [ "" ],
					"patching_rect" : [ 531.428589, 491.432373, 133.0, 22.0 ],
					"style" : "",
					"text" : "prepend midievent 144"
				}

			}
, 			{
				"box" : 				{
					"fontname" : "Arial",
					"fontsize" : 13.0,
					"id" : "obj-47",
					"maxclass" : "message",
					"numinlets" : 2,
					"numoutlets" : 1,
					"outlettype" : [ "" ],
					"patching_rect" : [ 602.928589, 321.432373, 29.5, 23.0 ],
					"style" : "",
					"text" : "2"
				}

			}
, 			{
				"box" : 				{
					"fontname" : "Arial",
					"fontsize" : 13.0,
					"id" : "obj-46",
					"maxclass" : "message",
					"numinlets" : 2,
					"numoutlets" : 1,
					"outlettype" : [ "" ],
					"patching_rect" : [ 661.678589, 308.432373, 29.5, 23.0 ],
					"style" : "",
					"text" : "1"
				}

			}
, 			{
				"box" : 				{
					"fontname" : "Arial",
					"fontsize" : 13.0,
					"id" : "obj-77",
					"maxclass" : "newobj",
					"numinlets" : 1,
					"numoutlets" : 1,
					"outlettype" : [ "bang" ],
					"patching_rect" : [ 602.928589, 275.932373, 65.0, 23.0 ],
					"style" : "",
					"text" : "loadbang"
				}

			}
, 			{
				"box" : 				{
					"allowdrag" : 0,
					"id" : "obj-57",
					"items" : [ "AU DLS Synth 1", ",", "from Max 1", ",", "from Max 2" ],
					"labelclick" : 1,
					"maxclass" : "umenu",
					"numinlets" : 1,
					"numoutlets" : 3,
					"outlettype" : [ "int", "", "" ],
					"parameter_enable" : 0,
					"patching_rect" : [ 602.928589, 362.932373, 147.0, 22.0 ],
					"style" : "",
					"varname" : "midi_in"
				}

			}
, 			{
				"box" : 				{
					"fontname" : "Arial",
					"fontsize" : 13.0,
					"id" : "obj-59",
					"maxclass" : "newobj",
					"numinlets" : 2,
					"numoutlets" : 1,
					"outlettype" : [ "" ],
					"patching_rect" : [ 661.678589, 333.432373, 56.0, 23.0 ],
					"style" : "",
					"text" : "midiinfo"
				}

			}
, 			{
				"box" : 				{
					"id" : "obj-40",
					"maxclass" : "newobj",
					"numinlets" : 1,
					"numoutlets" : 3,
					"outlettype" : [ "int", "int", "int" ],
					"patching_rect" : [ 531.428589, 423.432373, 93.0, 22.0 ],
					"style" : "",
					"text" : "unpack 0 0 0"
				}

			}
, 			{
				"box" : 				{
					"id" : "obj-37",
					"maxclass" : "newobj",
					"numinlets" : 3,
					"numoutlets" : 2,
					"outlettype" : [ "", "int" ],
					"patching_rect" : [ 531.428589, 394.432373, 97.0, 22.0 ],
					"style" : "",
					"text" : "bach.ezmidiplay"
				}

			}
, 			{
				"box" : 				{
					"id" : "obj-36",
					"maxclass" : "newobj",
					"numinlets" : 1,
					"numoutlets" : 1,
					"outlettype" : [ "bang" ],
					"patching_rect" : [ 415.5, 206.432373, 60.0, 22.0 ],
					"style" : "",
					"text" : "loadbang"
				}

			}
, 			{
				"box" : 				{
					"id" : "obj-35",
					"maxclass" : "message",
					"numinlets" : 2,
					"numoutlets" : 1,
					"outlettype" : [ "" ],
					"patching_rect" : [ 415.5, 236.432373, 57.0, 22.0 ],
					"style" : "",
					"text" : "zoom 30"
				}

			}
, 			{
				"box" : 				{
					"id" : "obj-34",
					"maxclass" : "message",
					"numinlets" : 2,
					"numoutlets" : 1,
					"outlettype" : [ "" ],
					"patching_rect" : [ 482.5, 236.432373, 210.0, 22.0 ],
					"style" : "",
					"text" : "addchord 1 (0 (6000 3000 100) 1000)"
				}

			}
, 			{
				"box" : 				{
					"id" : "obj-33",
					"maxclass" : "message",
					"numinlets" : 2,
					"numoutlets" : 1,
					"outlettype" : [ "" ],
					"patching_rect" : [ 384.0, 170.864746, 33.0, 22.0 ],
					"style" : "",
					"text" : "play"
				}

			}
, 			{
				"box" : 				{
					"activebgcolor" : [ 0.0, 0.0, 0.0, 0.15 ],
					"activebgoncolor" : [ 0.792157, 0.219608, 0.133333, 1.0 ],
					"activetextcolor" : [ 1.0, 1.0, 1.0, 0.6 ],
					"activetextoncolor" : [ 1.0, 1.0, 1.0, 1.0 ],
					"annotation" : "Light to open the Encoders Editor",
					"automation" : "",
					"automationon" : "Doubled",
					"bgcolor" : [ 1.0, 1.0, 1.0, 0.2 ],
					"bgoncolor" : [ 1.0, 1.0, 1.0, 0.6 ],
					"bordercolor" : [ 1.0, 1.0, 1.0, 0.0 ],
					"focusbordercolor" : [ 1.0, 1.0, 1.0, 0.0 ],
					"fontface" : 0,
					"fontname" : "Helvetica Neue",
					"fontsize" : 11.0,
					"hint" : "Open",
					"id" : "obj-30",
					"maxclass" : "live.text",
					"numinlets" : 1,
					"numoutlets" : 2,
					"outlettype" : [ "", "" ],
					"parameter_enable" : 1,
					"patching_rect" : [ 384.0, 74.5, 85.0, 31.0 ],
					"presentation" : 1,
					"presentation_rect" : [ 8.49881, 27.0, 45.5, 17.125 ],
					"rounded" : 16.0,
					"saved_attribute_attributes" : 					{
						"valueof" : 						{
							"parameter_longname" : "Map[2]",
							"parameter_shortname" : "Map",
							"parameter_type" : 2,
							"parameter_mmax" : 1.0,
							"parameter_enum" : [ "", "Doubled" ],
							"parameter_initial" : [ 0 ],
							"parameter_defer" : 1,
							"parameter_invisible" : 2,
							"parameter_annotation_name" : "Open"
						}

					}
,
					"text" : "Start",
					"textcolor" : [ 1.0, 1.0, 1.0, 0.6 ],
					"texton" : "Stop",
					"varname" : "autoplay_start"
				}

			}
, 			{
				"box" : 				{
					"angle" : 0.0,
					"bgcolor" : [ 0.094118, 0.113725, 0.137255, 0.21 ],
					"border" : 1,
					"bordercolor" : [ 0.415686, 0.454902, 0.52549, 1.0 ],
					"id" : "obj-32",
					"maxclass" : "panel",
					"mode" : 0,
					"numinlets" : 1,
					"numoutlets" : 0,
					"patching_rect" : [ 334.166626, 706.635254, 120.0, 120.0 ],
					"presentation" : 1,
					"presentation_rect" : [ 8.49881, 27.0, 45.5, 17.125 ],
					"proportion" : 0.39,
					"rounded" : 16,
					"style" : ""
				}

			}
, 			{
				"box" : 				{
					"id" : "obj-29",
					"maxclass" : "newobj",
					"numinlets" : 1,
					"numoutlets" : 1,
					"outlettype" : [ "" ],
					"patching_rect" : [ 1080.166626, 88.432373, 138.0, 22.0 ],
					"style" : "",
					"text" : "prepend /set_pitch_shift"
				}

			}
, 			{
				"box" : 				{
					"activebgcolor" : [ 0.0, 0.0, 0.0, 0.15 ],
					"activebgoncolor" : [ 0.792157, 0.219608, 0.133333, 1.0 ],
					"activetextcolor" : [ 1.0, 1.0, 1.0, 0.6 ],
					"activetextoncolor" : [ 1.0, 1.0, 1.0, 1.0 ],
					"annotation" : "Light to open the Encoders Editor",
					"automation" : "",
					"automationon" : "Doubled",
					"bgcolor" : [ 1.0, 1.0, 1.0, 0.2 ],
					"bgoncolor" : [ 1.0, 1.0, 1.0, 0.6 ],
					"bordercolor" : [ 1.0, 1.0, 1.0, 0.0 ],
					"focusbordercolor" : [ 1.0, 1.0, 1.0, 0.0 ],
					"fontface" : 0,
					"fontname" : "Helvetica Neue",
					"fontsize" : 11.0,
					"hint" : "Open",
					"id" : "obj-24",
					"maxclass" : "live.text",
					"numinlets" : 1,
					"numoutlets" : 2,
					"outlettype" : [ "", "" ],
					"parameter_enable" : 1,
					"patching_rect" : [ 1080.166626, 45.0, 85.0, 31.0 ],
					"presentation" : 1,
					"presentation_rect" : [ 58.49881, 27.0625, 44.0, 17.125 ],
					"rounded" : 16.0,
					"saved_attribute_attributes" : 					{
						"valueof" : 						{
							"parameter_longname" : "Map[1]",
							"parameter_shortname" : "Map",
							"parameter_type" : 2,
							"parameter_mmax" : 1.0,
							"parameter_enum" : [ "", "Doubled" ],
							"parameter_initial" : [ 0 ],
							"parameter_defer" : 1,
							"parameter_invisible" : 2,
							"parameter_annotation_name" : "Open"
						}

					}
,
					"text" : "Oct.",
					"textcolor" : [ 1.0, 1.0, 1.0, 0.6 ],
					"texton" : "Fix",
					"varname" : "encode_octave_fix"
				}

			}
, 			{
				"box" : 				{
					"angle" : 0.0,
					"bgcolor" : [ 0.094118, 0.113725, 0.137255, 0.21 ],
					"border" : 1,
					"bordercolor" : [ 0.415686, 0.454902, 0.52549, 1.0 ],
					"id" : "obj-25",
					"maxclass" : "panel",
					"mode" : 0,
					"numinlets" : 1,
					"numoutlets" : 0,
					"patching_rect" : [ 319.166626, 691.635254, 120.0, 120.0 ],
					"presentation" : 1,
					"presentation_rect" : [ 58.49881, 27.0625, 44.0, 17.125 ],
					"proportion" : 0.39,
					"rounded" : 16,
					"style" : ""
				}

			}
, 			{
				"box" : 				{
					"activebgcolor" : [ 0.0, 0.0, 0.0, 0.15 ],
					"activebgoncolor" : [ 0.792157, 0.219608, 0.133333, 1.0 ],
					"activetextcolor" : [ 1.0, 1.0, 1.0, 0.6 ],
					"activetextoncolor" : [ 1.0, 1.0, 1.0, 1.0 ],
					"annotation" : "Light to open the Encoders Editor",
					"automation" : "",
					"automationon" : "Doubled",
					"bgcolor" : [ 1.0, 1.0, 1.0, 0.2 ],
					"bgoncolor" : [ 1.0, 1.0, 1.0, 0.6 ],
					"bordercolor" : [ 1.0, 1.0, 1.0, 0.0 ],
					"focusbordercolor" : [ 1.0, 1.0, 1.0, 0.0 ],
					"fontface" : 0,
					"fontname" : "Helvetica Neue",
					"fontsize" : 11.0,
					"hint" : "Open",
					"id" : "obj-23",
					"maxclass" : "live.text",
					"numinlets" : 1,
					"numoutlets" : 2,
					"outlettype" : [ "", "" ],
					"parameter_enable" : 1,
					"patching_rect" : [ 953.38092, 51.0, 85.0, 31.0 ],
					"presentation" : 1,
					"presentation_rect" : [ 58.49881, 5.9375, 44.0, 17.125 ],
					"rounded" : 16.0,
					"saved_attribute_attributes" : 					{
						"valueof" : 						{
							"parameter_longname" : "Map[84]",
							"parameter_shortname" : "Map",
							"parameter_type" : 2,
							"parameter_mmax" : 1.0,
							"parameter_enum" : [ "", "Doubled" ],
							"parameter_initial" : [ 0 ],
							"parameter_defer" : 1,
							"parameter_invisible" : 2,
							"parameter_annotation_name" : "Open"
						}

					}
,
					"text" : "Pitch",
					"textcolor" : [ 1.0, 1.0, 1.0, 0.6 ],
					"texton" : "Fix",
					"varname" : "encode_pitch_shift"
				}

			}
, 			{
				"box" : 				{
					"angle" : 0.0,
					"bgcolor" : [ 0.094118, 0.113725, 0.137255, 0.21 ],
					"border" : 1,
					"bordercolor" : [ 0.415686, 0.454902, 0.52549, 1.0 ],
					"id" : "obj-27",
					"maxclass" : "panel",
					"mode" : 0,
					"numinlets" : 1,
					"numoutlets" : 0,
					"patching_rect" : [ 181.38092, 691.635254, 120.0, 120.0 ],
					"presentation" : 1,
					"presentation_rect" : [ 58.49881, 5.9375, 44.0, 17.125 ],
					"proportion" : 0.39,
					"rounded" : 16,
					"style" : ""
				}

			}
, 			{
				"box" : 				{
					"accidentalcolor" : [ 1.0, 1.0, 1.0, 1.0 ],
					"annotationcolor" : [ 1.0, 1.0, 1.0, 1.0 ],
					"annotationfontsize" : 2.0,
					"articulationcolor" : [ 1.0, 1.0, 1.0, 1.0 ],
					"bgcolor" : [ 1.0, 1.0, 1.0, 0.0 ],
					"bordercolor" : [ 0.6, 0.6, 0.6, 0.0 ],
					"bwcompatibility" : 80001,
					"catchplay" : 0,
					"clefcolor" : [ 1.0, 1.0, 1.0, 1.0 ],
					"defaultnoteslots" : [ "null" ],
					"dynamicscolor" : [ 1.0, 1.0, 1.0, 1.0 ],
					"fontface" : 0,
					"fontname" : "Arial",
					"fontsize" : 12.0,
					"id" : "obj-19",
					"inset" : 0,
					"keysigcolor" : [ 1.0, 1.0, 1.0, 1.0 ],
					"legendcolor" : [ 0.501961, 0.501961, 0.501961, 0.0 ],
					"loop" : [ 0.0, 1000.0 ],
					"lyricscolor" : [ 1.0, 1.0, 1.0, 1.0 ],
					"markercolor" : [ 0.239216, 0.701961, 0.188235, 0.0 ],
					"maxclass" : "bach.roll",
					"notecolor" : [ 1.0, 1.0, 1.0, 1.0 ],
					"numinlets" : 6,
					"numoutlets" : 8,
					"numvoices" : 1,
					"out" : "nnnnnnn",
					"outlettype" : [ "", "", "", "", "", "", "", "bang" ],
					"patching_rect" : [ 384.0, 277.432373, 191.0, 84.0 ],
					"pitcheditrange" : [ "null" ],
					"playmarkers" : 0,
					"presentation" : 1,
					"presentation_rect" : [ 115.0, -11.875, 174.0, 55.0 ],
					"rulercolor" : [ 1.0, 1.0, 1.0, 1.0 ],
					"showannotations" : 0,
					"showborder" : 0,
					"staffcolor" : [ 1.0, 1.0, 1.0, 1.0 ],
					"stafflines" : [ 5 ],
					"stemcolor" : [ 1.0, 1.0, 1.0, 1.0 ],
					"textcolor" : [ 1.0, 1.0, 1.0, 1.0 ],
					"versionnumber" : 80001,
					"voicenames" : [ "(", ")" ],
					"voicespacing" : [ 0.0, 0.0 ],
					"whole_roll_data_0000000000" : [ "roll", "(", "slotinfo", "(", 1, "(", "name", "velocity envelope", ")", "(", "type", "function", ")", "(", "key", 0, ")", "(", "range", "_x_x_x_x_bach_float64_x_x_x_x_", 0, 0, "_x_x_x_x_bach_float64_x_x_x_x_", 0, 1080016896, ")", "(", "slope", "_x_x_x_x_bach_float64_x_x_x_x_", 0, 0, ")", "(", "representation", ")", "(", "grid", ")", "(", "ysnap", ")", "(", "domain", "_x_x_x_x_bach_float64_x_x_x_x_", 0, 0, "_x_x_x_x_bach_float64_x_x_x_x_", 0, 1072693248, ")", "(", "domainslope", "_x_x_x_x_bach_float64_x_x_x_x_", 0, 0, ")", "(", "temporalmode", "relative", ")", "(", "extend", 0, ")", "(", "width", "auto", ")", "(", "height", "auto", ")", "(", "copywhensplit", 0, ")", "(", "access", "readandwrite", ")", "(", "follownotehead", 0, ")", ")", "(", 2, "(", "name", "slot function", ")", "(", "type", "function", ")", "(", "key", 0, ")", "(", "range", "_x_x_x_x_bach_float64_x_x_x_x_", 0, 0, "_x_x_x_x_bach_float64_x_x_x_x_", 0, 1072693248, ")", "(", "slope", "_x_x_x_x_bach_float64_x_x_x_x_", 0, 0, ")", "(", "representation", ")", "(", "grid", ")", "(", "ysnap", ")", "(", "domain", "_x_x_x_x_bach_float64_x_x_x_x_", 0, 0, "_x_x_x_x_bach_float64_x_x_x_x_", 0, 1072693248, ")", "(", "domainslope", "_x_x_x_x_bach_float64_x_x_x_x_", 0, 0, ")", "(", "temporalmode", "relative", ")", "(", "extend", 0, ")", "(", "width", "auto", ")", "(", "height", "auto", ")", "(", "copywhensplit", 0, ")", "(", "access", "readandwrite", ")", "(", "follownotehead", 0, ")", ")", "(", 3, "(", "name", "slot intlist", ")", "(", "type", "intlist", ")", "(", "key", 0, ")", "(", "range", "_x_x_x_x_bach_float64_x_x_x_x_", 0, 0, "_x_x_x_x_bach_float64_x_x_x_x_", 0, 1080016896, ")", "(", "slope", "_x_x_x_x_bach_float64_x_x_x_x_", 0, 0, ")", "(", "representation", ")", "(", "default", "_x_x_x_x_bach_float64_x_x_x_x_", 0, 1078984704, ")", "(", "temporalmode", "none", ")", "(", "extend", 0, ")", "(", "width", "_x_x_x_x_bach_float64_x_x_x_x_", 0, 1079574528, ")", "(", "height", "auto", ")", "(", "copywhensplit", 1, ")", "(", "access", "readandwrite", ")", "(", "follownotehead", 0, ")", ")", "(", 4, "(", "name", "slot floatlist", ")", "(", "type", "floatlist", ")", "(", "key", 0, ")", "(", "range", "_x_x_x_x_bach_float64_x_x_x_x_", 0, 0, "_x_x_x_x_bach_float64_x_x_x_x_", 0, 1072693248, ")", "(", "slope", "_x_x_x_x_bach_float64_x_x_x_x_", 0, 0, ")", "(", "representation", ")", "(", "default", "_x_x_x_x_bach_float64_x_x_x_x_", 0, 0, ")", "(", "temporalmode", "none", ")", "(", "extend", 0, ")", "(", "width", "_x_x_x_x_bach_float64_x_x_x_x_", 0, 1079574528, ")", "(", "height", "auto", ")", "(", "copywhensplit", 1, ")", "(", "access", "readandwrite", ")", "(", "follownotehead", 0, ")", ")", "(", 5, "(", "name", "slot int", ")", "(", "type", "int", ")", "(", "key", 0, ")", "(", "range", "_x_x_x_x_bach_float64_x_x_x_x_", 0, 0, "_x_x_x_x_bach_float64_x_x_x_x_", 0, 1080016896, ")", "(", "slope", "_x_x_x_x_bach_float64_x_x_x_x_", 0, 0, ")", "(", "representation", ")", "(", "default", "_x_x_x_x_bach_float64_x_x_x_x_", 0, 1078984704, ")", "(", "temporalmode", "none", ")", "(", "extend", 0, ")", "(", "width", "_x_x_x_x_bach_float64_x_x_x_x_", 0, 1079574528, ")", "(", "height", "auto", ")", "(", "copywhensplit", 1, ")", "(", "access", "readandwrite", ")", "(", "follownotehead", 0, ")", ")", "(", 6, "(", "name", "slot float", ")", "(", "type", "float", ")", "(", "key", 0, ")", "(", "range", "_x_x_x_x_bach_float64_x_x_x_x_", 0, 0, "_x_x_x_x_bach_float64_x_x_x_x_", 0, 1072693248, ")", "(", "slope", "_x_x_x_x_bach_float64_x_x_x_x_", 0, 0, ")", "(", "representation", ")", "(", "default", "_x_x_x_x_bach_float64_x_x_x_x_", 0, 0, ")", "(", "temporalmode", "none", ")", "(", "extend", 0, ")", "(", "width", "_x_x_x_x_bach_float64_x_x_x_x_", 0, 1079574528, ")", "(", "height", "auto", ")", "(", "copywhensplit", 1, ")", "(", "access", "readandwrite", ")", "(", "follownotehead", 0, ")", ")", "(", 7, "(", "name", "slot text", ")", "(", "type", "text", ")", "(", "key", 0, ")", "(", "temporalmode", "none", ")", "(", "extend", 0, ")", "(", "width", "_x_x_x_x_bach_float64_x_x_x_x_", 0, 1079574528, ")", "(", "height", "auto", ")", "(", "copywhensplit", 0, ")", "(", "access", "readandwrite", ")", "(", "follownotehead", 0, ")", ")", "(", 8, "(", "name", "slot filelist", ")", "(", "type", "filelist", ")", "(", "key", 0, ")", "(", "temporalmode", "none", ")", "(", "extend", 0, ")", "(", "width", "_x_x_x_x_bach_float64_x_x_x_x_", 0, 1080213504, ")", "(", "height", "auto", ")", "(", "copywhensplit", 1, ")", "(", "access", "readandwrite", ")", "(", "follownotehead", 0, ")", ")", "(", 9, "(", "name", "slot spat", ")", "(", "type", "spat", ")", "(", "key", 0, ")", "(", "range", "_x_x_x_x_bach_float64_x_x_x_x_", 0, 0, "_x_x_x_x_bach_float64_x_x_x_x_", 0, 1076101120, ")", "(", "slope", "_x_x_x_x_bach_float64_x_x_x_x_", 0, 0, ")", "(", "representation", ")", "(", "temporalmode", "relative", ")", "(", "extend", 0, ")", "(", "width", "auto", ")", "(", "height", "auto", ")", "(", "copywhensplit", 0, ")", "(", "access", "readandwrite", ")", "(", "follownotehead", 0, ")", ")", "(", 10, "(", "name", "slot llll", ")", "(", "type", "llll", ")", "(", "key", 0, ")", "(", "temporalmode", "none", ")", "(", "extend", 0, ")", "(", "width", "_x_x_x_x_bach_float64_x_x_x_x_", 0, 1079574528, ")", "(", "height", "auto", ")", "(", "copywhensplit", 0, ")", "(", "access", "readandwrite", ")", "(", "follownotehead", 0, ")", ")", "(", 11, "(", "name", "slot 11", ")", "(", "type", "none", ")", "(", "key", 0, ")", "(", "temporalmode", "none", ")", "(", "extend", 0, ")", "(", "width", "_x_x_x_x_bach_float64_x_x_x_x_", 0, 1079574528, ")", "(", "height", "auto", ")", "(", "copywhensplit", 1, ")", "(", "access", "readandwrite", ")", "(", "follownotehead", 0, ")", ")", "(", 12, "(", "name", "slot 12", ")", "(", "type", "none", ")", "(", "key", 0, ")", "(", "temporalmode", "none", ")", "(", "extend", 0, ")", "(", "width", "_x_x_x_x_bach_float64_x_x_x_x_", 0, 1079574528, ")", "(", "height", "auto", ")", "(", "copywhensplit", 1, ")", "(", "access", "readandwrite", ")", "(", "follownotehead", 0, ")", ")", "(", 13, "(", "name", "slot 13", ")", "(", "type", "none", ")", "(", "key", 0, ")", "(", "temporalmode", "none", ")", "(", "extend", 0, ")", "(", "width", "_x_x_x_x_bach_float64_x_x_x_x_", 0, 1079574528, ")", "(", "height", "auto", ")", "(", "copywhensplit", 1, ")", "(", "access", "readandwrite", ")", "(", "follownotehead", 0, ")", ")", "(", 14, "(", "name", "slot 14", ")", "(", "type", "none", ")", "(", "key", 0, ")", "(", "temporalmode", "none", ")", "(", "extend", 0, ")", "(", "width", "_x_x_x_x_bach_float64_x_x_x_x_", 0, 1079574528, ")", "(", "height", "auto", ")", "(", "copywhensplit", 1, ")", "(", "access", "readandwrite", ")", "(", "follownotehead", 0, ")", ")", "(", 15, "(", "name", "slot 15", ")", "(", "type", "none", ")", "(", "key", 0, ")", "(", "temporalmode", "none", ")", "(", "extend", 0, ")", "(", "width", "_x_x_x_x_bach_float64_x_x_x_x_", 0, 1079574528, ")", "(", "height", "auto", ")", "(", "copywhensplit", 1, ")", "(", "access", "readandwrite", ")", "(", "follownotehead", 0, ")", ")", "(", 16, "(", "name", "slot 16", ")", "(", "type", "none", ")", "(", "key", 0, ")", "(", "temporalmode", "none", ")", "(", "extend", 0, ")", "(", "width", "_x_x_x_x_bach_float64_x_x_x_x_", 0, 1079574528, ")", "(", "height", "auto", ")", "(", "copywhensplit", 1, ")", "(", "access", "readandwrite", ")", "(", "follownotehead", 0, ")", ")", "(", 17, "(", "name", "slot 17", ")", "(", "type", "none", ")", "(", "key", 0, ")", "(", "temporalmode", "none", ")", "(", "extend", 0, ")", "(", "width", "_x_x_x_x_bach_float64_x_x_x_x_", 0, 1079574528, ")", "(", "height", "auto", ")", "(", "copywhensplit", 1, ")", "(", "access", "readandwrite", ")", "(", "follownotehead", 0, ")", ")", "(", 18, "(", "name", "slot 18", ")", "(", "type", "none", ")", "(", "key", 0, ")", "(", "temporalmode", "none", ")", "(", "extend", 0, ")", "(", "width", "_x_x_x_x_bach_float64_x_x_x_x_", 0, 1079574528, ")", "(", "height", "auto", ")", "(", "copywhensplit", 1, ")", "(", "access", "readandwrite", ")", "(", "follownotehead", 0, ")", ")", "(", 19, "(", "name", "slot 19", ")", "(", "type", "none", ")", "(", "key", 0, ")", "(", "temporalmode", "none", ")", "(", "extend", 0, ")", "(", "width", "_x_x_x_x_bach_float64_x_x_x_x_", 0, 1079574528, ")", "(", "height", "auto", ")", "(", "copywhensplit", 1, ")", "(", "access", "readandwrite", ")", "(", "follownotehead", 0, ")", ")", "(", 20, "(", "name", "dynamics", ")", "(", "type", "dynamics", ")", "(", "key", "d", ")", "(", "temporalmode", "none", ")", "(", "extend", 0, ")", "(", "width", "_x_x_x_x_bach_float64_x_x_x_x_", 0, 1079083008, ")", "(", "height", "auto", ")", "(", "copywhensplit", 0, ")", "(", "access", "readandwrite", ")", "(", "follownotehead", 0, ")", ")", "(", 21, "(", "name", "lyrics", ")", "(", "type", "text", ")", "(", "key", "l", ")", "(", "temporalmode", "none", ")", "(", "extend", 0, ")", "(", "width", "_x_x_x_x_bach_float64_x_x_x_x_", 0, 1079574528, ")", "(", "height", "auto", ")", "(", "copywhensplit", 0, ")", "(", "access", "readandwrite", ")", "(", "follownotehead", 0, ")", ")", "(", 22, "(", "name", "articulations", ")", "(", "type", "articulations", ")", "(", "key", "a", ")", "(", "temporalmode", "none", ")", "(", "extend", 0, ")", "(", "width", "_x_x_x_x_bach_float64_x_x_x_x_", 0, 1079738368, ")", "(", "height", "auto", ")", "(", "copywhensplit", 1, ")", "(", "access", "readandwrite", ")", "(", "follownotehead", 0, ")", ")", "(", 23, "(", "name", "notehead", ")", "(", "type", "notehead", ")", "(", "key", "h", ")", "(", "temporalmode", "none", ")", "(", "extend", 0, ")", "(", "width", "_x_x_x_x_bach_float64_x_x_x_x_", 0, 1079738368, ")", "(", "height", "auto", ")", "(", "copywhensplit", 1, ")", "(", "access", "readandwrite", ")", "(", "follownotehead", 0, ")", ")", "(", 24, "(", "name", "slot 24", ")", "(", "type", "none", ")", "(", "key", 0, ")", "(", "temporalmode", "none", ")", "(", "extend", 0, ")", "(", "width", "_x_x_x_x_bach_float64_x_x_x_x_", 0, 1079574528, ")", "(", "height", "auto", ")", "(", "copywhensplit", 1, ")", "(", "access", "readandwrite", ")", "(", "follownotehead", 0, ")", ")", "(", 25, "(", "name", "slot 25", ")", "(", "type", "none", ")", "(", "key", 0, ")", "(", "temporalmode", "none", ")", "(", "extend", 0, ")", "(", "width", "_x_x_x_x_bach_float64_x_x_x_x_", 0, 1079574528, ")", "(", "height", "auto", ")", "(", "copywhensplit", 1, ")", "(", "access", "readandwrite", ")", "(", "follownotehead", 0, ")", ")", "(", 26, "(", "name", "slot 26", ")", "(", "type", "none", ")", "(", "key", 0, ")", "(", "temporalmode", "none", ")", "(", "extend", 0, ")", "(", "width", "_x_x_x_x_bach_float64_x_x_x_x_", 0, 1079574528, ")", "(", "height", "auto", ")", "(", "copywhensplit", 1, ")", "(", "access", "readandwrite", ")", "(", "follownotehead", 0, ")", ")", "(", 27, "(", "name", "slot 27", ")", "(", "type", "none", ")", "(", "key", 0, ")", "(", "temporalmode", "none", ")", "(", "extend", 0, ")", "(", "width", "_x_x_x_x_bach_float64_x_x_x_x_", 0, 1079574528, ")", "(", "height", "auto", ")", "(", "copywhensplit", 1, ")", "(", "access", "readandwrite", ")", "(", "follownotehead", 0, ")", ")", "(", 28, "(", "name", "slot 28", ")", "(", "type", "none", ")", "(", "key", 0, ")", "(", "temporalmode", "none", ")", "(", "extend", 0, ")", "(", "width", "_x_x_x_x_bach_float64_x_x_x_x_", 0, 1079574528, ")", "(", "height", "auto", ")", "(", "copywhensplit", 1, ")", "(", "access", "readandwrite", ")", "(", "follownotehead", 0, ")", ")", "(", 29, "(", "name", "slot 29", ")", "(", "type", "none", ")", "(", "key", 0, ")", "(", "temporalmode", "none", ")", "(", "extend", 0, ")", "(", "width", "_x_x_x_x_bach_float64_x_x_x_x_", 0, 1079574528, ")", "(", "height", "auto", ")", "(", "copywhensplit", 1, ")", "(", "access", "readandwrite", ")", "(", "follownotehead", 0, ")", ")", "(", 30, "(", "name", "slot 30", ")", "(", "type", "none", ")", "(", "key", 0, ")", "(", "temporalmode", "none", ")", "(", "extend", 0, ")", "(", "width", "_x_x_x_x_bach_float64_x_x_x_x_", 0, 1079574528, ")", "(", "height", "auto", ")", "(", "copywhensplit", 1, ")", "(", "access", "readandwrite", ")", "(", "follownotehead", 0, ")", ")", ")", "(", "commands", "(", 1, "(", "note", "note", ")", "(", "chord", "chord", ")", "(", "rest", "rest", ")", "(", "key", 0, ")", ")", "(", 2, "(", "note", "note", ")", "(", "chord", "chord", ")", "(", "rest", "rest", ")", "(", "key", 0, ")", ")", "(", 3, "(", "note", "note", ")", "(", "chord", "chord", ")", "(", "rest", "rest", ")", "(", "key", 0, ")", ")", "(", 4, "(", "note", "note", ")", "(", "chord", "chord", ")", "(", "rest", "rest", ")", "(", "key", 0, ")", ")", "(", 5, "(", "note", "note", ")", "(", "chord", "chord", ")", "(", "rest", "rest", ")", "(", "key", 0, ")", ")", ")", "(", "groups", ")", "(", "markers", ")", "(", "midichannels", 1, ")", "(", "articulationinfo", ")", "(", "noteheadinfo", ")", "(", "(", "_x_x_x_x_bach_float64_x_x_x_x_", 0, 0, "(", "_x_x_x_x_bach_float64_x_x_x_x_", 0, 1085763584, "_x_x_x_x_bach_float64_x_x_x_x_", 0, 1084715008, 100, 0, ")", 0, ")", 0, ")" ],
					"whole_roll_data_count" : [ 1 ],
					"zoom" : 30.0
				}

			}
, 			{
				"box" : 				{
					"id" : "obj-90",
					"linecolor" : [ 0.349151, 0.377564, 0.442529, 1.0 ],
					"maxclass" : "live.line",
					"numinlets" : 1,
					"numoutlets" : 0,
					"patching_rect" : [ 810.0, 777.635254, 5.0, 18.0 ],
					"presentation" : 1,
					"presentation_rect" : [ 9.99881, 22.969357, 43.0, 16.950928 ]
				}

			}
, 			{
				"box" : 				{
					"bgcolor" : [ 0.866667, 0.866667, 0.866667, 0.0 ],
					"bgfillcolor_angle" : 270.0,
					"bgfillcolor_autogradient" : 0.79,
					"bgfillcolor_color" : [ 0.290196, 0.309804, 0.301961, 1.0 ],
					"bgfillcolor_color1" : [ 0.866667, 0.866667, 0.866667, 0.0 ],
					"bgfillcolor_color2" : [ 0.685, 0.685, 0.685, 1.0 ],
					"bgfillcolor_proportion" : 0.39,
					"bgfillcolor_type" : "gradient",
					"fontname" : "Helvetica Neue UltraLight",
					"fontsize" : 16.0,
					"gradient" : 0,
					"id" : "obj-31",
					"ignoreclick" : 1,
					"linecount" : 3,
					"maxclass" : "message",
					"numinlets" : 2,
					"numoutlets" : 1,
					"outlettype" : [ "" ],
					"patching_rect" : [ 807.5, 691.635254, 23.0, 63.0 ],
					"presentation" : 1,
					"presentation_rect" : [ 9.49881, -1.0, 48.0, 27.0 ],
					"style" : "",
					"text" : "player",
					"textcolor" : [ 1.0, 1.0, 1.0, 0.3 ]
				}

			}
, 			{
				"box" : 				{
					"angle" : 0.0,
					"bgcolor" : [ 0.094118, 0.113725, 0.137255, 0.21 ],
					"border" : 1,
					"bordercolor" : [ 0.415686, 0.454902, 0.52549, 1.0 ],
					"id" : "obj-21",
					"maxclass" : "panel",
					"mode" : 0,
					"numinlets" : 1,
					"numoutlets" : 0,
					"patching_rect" : [ 612.5, 691.635254, 120.0, 120.0 ],
					"presentation" : 1,
					"presentation_rect" : [ 1.0, 2.280514, 296.666626, 46.328613 ],
					"proportion" : 0.39,
					"rounded" : 16,
					"style" : ""
				}

			}
, 			{
				"box" : 				{
					"comment" : "",
					"id" : "obj-8",
					"index" : 0,
					"maxclass" : "outlet",
					"numinlets" : 1,
					"numoutlets" : 0,
					"patching_rect" : [ 884.166626, 133.0, 30.0, 30.0 ],
					"style" : ""
				}

			}
, 			{
				"box" : 				{
					"id" : "obj-43",
					"maxclass" : "newobj",
					"numinlets" : 1,
					"numoutlets" : 1,
					"outlettype" : [ "" ],
					"patching_rect" : [ 884.166626, 94.432373, 138.0, 22.0 ],
					"style" : "",
					"text" : "prepend /set_pitch_shift"
				}

			}
, 			{
				"box" : 				{
					"id" : "obj-3",
					"maxclass" : "newobj",
					"numinlets" : 1,
					"numoutlets" : 1,
					"outlettype" : [ "" ],
					"patching_rect" : [ 91.666626, 98.432373, 74.0, 22.0 ],
					"style" : "",
					"text" : "prepend set"
				}

			}
, 			{
				"box" : 				{
					"fontsize" : 12.0,
					"id" : "obj-17",
					"maxclass" : "comment",
					"numinlets" : 1,
					"numoutlets" : 0,
					"patching_rect" : [ 303.5, 29.0, 62.166626, 20.0 ],
					"style" : "",
					"text" : "Velocity"
				}

			}
, 			{
				"box" : 				{
					"comment" : "",
					"id" : "obj-18",
					"index" : 0,
					"maxclass" : "inlet",
					"numinlets" : 0,
					"numoutlets" : 1,
					"outlettype" : [ "" ],
					"patching_rect" : [ 303.5, 61.432373, 30.0, 30.0 ],
					"style" : ""
				}

			}
, 			{
				"box" : 				{
					"fontsize" : 12.0,
					"id" : "obj-15",
					"maxclass" : "comment",
					"numinlets" : 1,
					"numoutlets" : 0,
					"patching_rect" : [ 232.5, 29.0, 62.166626, 20.0 ],
					"style" : "",
					"text" : "Duration"
				}

			}
, 			{
				"box" : 				{
					"comment" : "",
					"id" : "obj-16",
					"index" : 0,
					"maxclass" : "inlet",
					"numinlets" : 0,
					"numoutlets" : 1,
					"outlettype" : [ "" ],
					"patching_rect" : [ 239.5, 61.432373, 30.0, 30.0 ],
					"style" : ""
				}

			}
, 			{
				"box" : 				{
					"fontsize" : 12.0,
					"id" : "obj-13",
					"maxclass" : "comment",
					"numinlets" : 1,
					"numoutlets" : 0,
					"patching_rect" : [ 166.666626, 29.0, 49.0, 20.0 ],
					"style" : "",
					"text" : "Interval"
				}

			}
, 			{
				"box" : 				{
					"comment" : "",
					"id" : "obj-14",
					"index" : 0,
					"maxclass" : "inlet",
					"numinlets" : 0,
					"numoutlets" : 1,
					"outlettype" : [ "" ],
					"patching_rect" : [ 172.666626, 61.432373, 30.0, 30.0 ],
					"style" : ""
				}

			}
, 			{
				"box" : 				{
					"fontsize" : 12.0,
					"id" : "obj-12",
					"maxclass" : "comment",
					"numinlets" : 1,
					"numoutlets" : 0,
					"patching_rect" : [ 91.666626, 29.0, 49.0, 20.0 ],
					"style" : "",
					"text" : "Note"
				}

			}
, 			{
				"box" : 				{
					"fontsize" : 12.0,
					"id" : "obj-11",
					"maxclass" : "comment",
					"numinlets" : 1,
					"numoutlets" : 0,
					"patching_rect" : [ 18.666626, 29.0, 49.0, 20.0 ],
					"style" : "",
					"text" : "On/Off"
				}

			}
, 			{
				"box" : 				{
					"comment" : "",
					"id" : "obj-10",
					"index" : 0,
					"maxclass" : "inlet",
					"numinlets" : 0,
					"numoutlets" : 1,
					"outlettype" : [ "" ],
					"patching_rect" : [ 91.666626, 61.432373, 30.0, 30.0 ],
					"style" : ""
				}

			}
, 			{
				"box" : 				{
					"comment" : "",
					"id" : "obj-9",
					"index" : 0,
					"maxclass" : "inlet",
					"numinlets" : 0,
					"numoutlets" : 1,
					"outlettype" : [ "" ],
					"patching_rect" : [ 18.666626, 61.432373, 30.0, 30.0 ],
					"style" : ""
				}

			}
, 			{
				"box" : 				{
					"id" : "obj-6",
					"maxclass" : "message",
					"numinlets" : 2,
					"numoutlets" : 1,
					"outlettype" : [ "" ],
					"patching_rect" : [ 484.0, 110.432373, 43.0, 22.0 ],
					"style" : "",
					"text" : "set 60"
				}

			}
, 			{
				"box" : 				{
					"id" : "obj-2",
					"maxclass" : "newobj",
					"numinlets" : 1,
					"numoutlets" : 1,
					"outlettype" : [ "bang" ],
					"patching_rect" : [ 484.0, 79.0, 60.0, 22.0 ],
					"style" : "",
					"text" : "loadbang"
				}

			}
, 			{
				"box" : 				{
					"comment" : "",
					"id" : "obj-1",
					"index" : 0,
					"maxclass" : "outlet",
					"numinlets" : 1,
					"numoutlets" : 0,
					"patching_rect" : [ 21.166626, 601.0, 30.0, 30.0 ],
					"style" : ""
				}

			}
, 			{
				"box" : 				{
					"fontsize" : 18.0,
					"id" : "obj-4",
					"maxclass" : "comment",
					"numinlets" : 1,
					"numoutlets" : 0,
					"patching_rect" : [ 78.666626, 360.0, 216.0, 27.0 ],
					"style" : "",
					"text" : "Automatic player"
				}

			}
, 			{
				"box" : 				{
					"id" : "obj-117",
					"maxclass" : "newobj",
					"numinlets" : 2,
					"numoutlets" : 1,
					"outlettype" : [ "bang" ],
					"patching_rect" : [ 18.666626, 126.432373, 173.0, 22.0 ],
					"style" : "",
					"text" : "metro 4000"
				}

			}
, 			{
				"box" : 				{
					"fontname" : "Arial",
					"fontsize" : 12.0,
					"id" : "obj-7",
					"maxclass" : "newobj",
					"numinlets" : 1,
					"numoutlets" : 1,
					"outlettype" : [ "int" ],
					"patching_rect" : [ 158.38092, 277.432373, 50.0, 22.0 ],
					"style" : "",
					"text" : "midiin"
				}

			}
, 			{
				"box" : 				{
					"fontname" : "Arial",
					"fontsize" : 12.0,
					"id" : "obj-22",
					"maxclass" : "newobj",
					"numinlets" : 1,
					"numoutlets" : 8,
					"outlettype" : [ "", "", "", "int", "int", "", "int", "" ],
					"patching_rect" : [ 158.38092, 307.432373, 143.0, 22.0 ],
					"style" : "",
					"text" : "midiparse"
				}

			}
, 			{
				"box" : 				{
					"fontname" : "Arial",
					"fontsize" : 13.0,
					"id" : "obj-97",
					"maxclass" : "newobj",
					"numinlets" : 7,
					"numoutlets" : 2,
					"outlettype" : [ "int", "" ],
					"patching_rect" : [ 18.666626, 307.432373, 108.0, 23.0 ],
					"style" : "",
					"text" : "midiformat"
				}

			}
, 			{
				"box" : 				{
					"fontname" : "Arial",
					"fontsize" : 13.0,
					"id" : "obj-98",
					"maxclass" : "newobj",
					"numinlets" : 2,
					"numoutlets" : 1,
					"outlettype" : [ "" ],
					"patching_rect" : [ 18.666626, 277.432373, 32.5, 23.0 ],
					"style" : "",
					"text" : "join"
				}

			}
, 			{
				"box" : 				{
					"fontname" : "Arial",
					"fontsize" : 13.0,
					"id" : "obj-99",
					"maxclass" : "newobj",
					"numinlets" : 3,
					"numoutlets" : 2,
					"outlettype" : [ "float", "float" ],
					"patching_rect" : [ 18.666626, 246.432373, 125.0, 23.0 ],
					"style" : "",
					"text" : "makenote 100 3000"
				}

			}
, 			{
				"box" : 				{
					"id" : "obj-100",
					"maxclass" : "kslider",
					"numinlets" : 2,
					"numoutlets" : 2,
					"outlettype" : [ "int", "int" ],
					"parameter_enable" : 0,
					"patching_rect" : [ 18.666626, 164.0, 336.0, 53.0 ],
					"presentation" : 1,
					"presentation_rect" : [ 181.666626, 316.0, 252.0, 41.0 ],
					"style" : "",
					"varname" : "keyboard"
				}

			}
 ],
		"lines" : [ 			{
				"patchline" : 				{
					"destination" : [ "obj-3", 0 ],
					"source" : [ "obj-10", 0 ]
				}

			}
, 			{
				"patchline" : 				{
					"destination" : [ "obj-99", 1 ],
					"midpoints" : [ 345.166626, 229.0, 81.166626, 229.0 ],
					"source" : [ "obj-100", 1 ]
				}

			}
, 			{
				"patchline" : 				{
					"destination" : [ "obj-99", 0 ],
					"source" : [ "obj-100", 0 ]
				}

			}
, 			{
				"patchline" : 				{
					"destination" : [ "obj-100", 0 ],
					"order" : 1,
					"source" : [ "obj-117", 0 ]
				}

			}
, 			{
				"patchline" : 				{
					"destination" : [ "obj-33", 0 ],
					"midpoints" : [ 28.166626, 156.932373, 393.5, 156.932373 ],
					"order" : 0,
					"source" : [ "obj-117", 0 ]
				}

			}
, 			{
				"patchline" : 				{
					"destination" : [ "obj-117", 1 ],
					"source" : [ "obj-14", 0 ]
				}

			}
, 			{
				"patchline" : 				{
					"destination" : [ "obj-99", 2 ],
					"midpoints" : [ 249.0, 150.0, 366.0, 150.0, 366.0, 231.0, 134.166626, 231.0 ],
					"source" : [ "obj-16", 0 ]
				}

			}
, 			{
				"patchline" : 				{
					"destination" : [ "obj-99", 1 ],
					"midpoints" : [ 313.0, 150.0, 366.0, 150.0, 366.0, 231.0, 81.166626, 231.0 ],
					"source" : [ "obj-18", 0 ]
				}

			}
, 			{
				"patchline" : 				{
					"destination" : [ "obj-37", 0 ],
					"source" : [ "obj-19", 6 ]
				}

			}
, 			{
				"patchline" : 				{
					"destination" : [ "obj-6", 0 ],
					"source" : [ "obj-2", 0 ]
				}

			}
, 			{
				"patchline" : 				{
					"destination" : [ "obj-19", 0 ],
					"source" : [ "obj-20", 0 ]
				}

			}
, 			{
				"patchline" : 				{
					"destination" : [ "obj-1", 0 ],
					"midpoints" : [ 291.88092, 343.716187, 30.666626, 343.716187 ],
					"source" : [ "obj-22", 7 ]
				}

			}
, 			{
				"patchline" : 				{
					"destination" : [ "obj-43", 0 ],
					"midpoints" : [ 962.88092, 87.716187, 893.666626, 87.716187 ],
					"source" : [ "obj-23", 0 ]
				}

			}
, 			{
				"patchline" : 				{
					"destination" : [ "obj-29", 0 ],
					"source" : [ "obj-24", 0 ]
				}

			}
, 			{
				"patchline" : 				{
					"destination" : [ "obj-23", 0 ],
					"source" : [ "obj-26", 0 ]
				}

			}
, 			{
				"patchline" : 				{
					"destination" : [ "obj-50", 0 ],
					"source" : [ "obj-28", 0 ]
				}

			}
, 			{
				"patchline" : 				{
					"destination" : [ "obj-8", 0 ],
					"midpoints" : [ 1089.666626, 123.0, 893.666626, 123.0 ],
					"source" : [ "obj-29", 0 ]
				}

			}
, 			{
				"patchline" : 				{
					"destination" : [ "obj-100", 0 ],
					"midpoints" : [ 101.166626, 155.5, 28.166626, 155.5 ],
					"source" : [ "obj-3", 0 ]
				}

			}
, 			{
				"patchline" : 				{
					"destination" : [ "obj-117", 0 ],
					"midpoints" : [ 393.5, 122.216186, 28.166626, 122.216186 ],
					"source" : [ "obj-30", 0 ]
				}

			}
, 			{
				"patchline" : 				{
					"destination" : [ "obj-19", 0 ],
					"source" : [ "obj-33", 0 ]
				}

			}
, 			{
				"patchline" : 				{
					"destination" : [ "obj-19", 0 ],
					"midpoints" : [ 492.0, 269.432373, 393.5, 269.432373 ],
					"source" : [ "obj-34", 0 ]
				}

			}
, 			{
				"patchline" : 				{
					"destination" : [ "obj-19", 0 ],
					"midpoints" : [ 425.0, 268.432373, 393.5, 268.432373 ],
					"source" : [ "obj-35", 0 ]
				}

			}
, 			{
				"patchline" : 				{
					"destination" : [ "obj-20", 0 ],
					"order" : 3,
					"source" : [ "obj-36", 0 ]
				}

			}
, 			{
				"patchline" : 				{
					"destination" : [ "obj-34", 0 ],
					"midpoints" : [ 425.0, 232.932373, 492.0, 232.932373 ],
					"order" : 1,
					"source" : [ "obj-36", 0 ]
				}

			}
, 			{
				"patchline" : 				{
					"destination" : [ "obj-35", 0 ],
					"order" : 2,
					"source" : [ "obj-36", 0 ]
				}

			}
, 			{
				"patchline" : 				{
					"destination" : [ "obj-39", 0 ],
					"midpoints" : [ 425.0, 231.932373, 710.5, 231.932373 ],
					"order" : 0,
					"source" : [ "obj-36", 0 ]
				}

			}
, 			{
				"patchline" : 				{
					"destination" : [ "obj-40", 0 ],
					"source" : [ "obj-37", 0 ]
				}

			}
, 			{
				"patchline" : 				{
					"destination" : [ "obj-19", 0 ],
					"midpoints" : [ 710.5, 267.432373, 393.5, 267.432373 ],
					"source" : [ "obj-39", 0 ]
				}

			}
, 			{
				"patchline" : 				{
					"destination" : [ "obj-28", 1 ],
					"source" : [ "obj-40", 1 ]
				}

			}
, 			{
				"patchline" : 				{
					"destination" : [ "obj-28", 0 ],
					"source" : [ "obj-40", 0 ]
				}

			}
, 			{
				"patchline" : 				{
					"destination" : [ "obj-8", 0 ],
					"source" : [ "obj-43", 0 ]
				}

			}
, 			{
				"patchline" : 				{
					"destination" : [ "obj-59", 0 ],
					"source" : [ "obj-46", 0 ]
				}

			}
, 			{
				"patchline" : 				{
					"destination" : [ "obj-57", 0 ],
					"source" : [ "obj-47", 0 ]
				}

			}
, 			{
				"patchline" : 				{
					"destination" : [ "obj-1", 0 ],
					"midpoints" : [ 540.928589, 536.716187, 30.666626, 536.716187 ],
					"source" : [ "obj-50", 0 ]
				}

			}
, 			{
				"patchline" : 				{
					"destination" : [ "obj-37", 2 ],
					"midpoints" : [ 676.428589, 389.182373, 618.928589, 389.182373 ],
					"source" : [ "obj-57", 1 ]
				}

			}
, 			{
				"patchline" : 				{
					"destination" : [ "obj-57", 0 ],
					"midpoints" : [ 671.178589, 359.682373, 612.428589, 359.682373 ],
					"source" : [ "obj-59", 0 ]
				}

			}
, 			{
				"patchline" : 				{
					"destination" : [ "obj-100", 0 ],
					"midpoints" : [ 493.5, 156.216187, 28.166626, 156.216187 ],
					"source" : [ "obj-6", 0 ]
				}

			}
, 			{
				"patchline" : 				{
					"destination" : [ "obj-22", 0 ],
					"source" : [ "obj-7", 0 ]
				}

			}
, 			{
				"patchline" : 				{
					"destination" : [ "obj-46", 0 ],
					"midpoints" : [ 612.428589, 304.682373, 671.178589, 304.682373 ],
					"order" : 0,
					"source" : [ "obj-77", 0 ]
				}

			}
, 			{
				"patchline" : 				{
					"destination" : [ "obj-47", 0 ],
					"order" : 1,
					"source" : [ "obj-77", 0 ]
				}

			}
, 			{
				"patchline" : 				{
					"destination" : [ "obj-117", 0 ],
					"source" : [ "obj-9", 0 ]
				}

			}
, 			{
				"patchline" : 				{
					"destination" : [ "obj-97", 0 ],
					"midpoints" : [ 28.166626, 302.432373, 28.166626, 302.432373 ],
					"source" : [ "obj-98", 0 ]
				}

			}
, 			{
				"patchline" : 				{
					"destination" : [ "obj-98", 1 ],
					"midpoints" : [ 134.166626, 273.432373, 41.666626, 273.432373 ],
					"source" : [ "obj-99", 1 ]
				}

			}
, 			{
				"patchline" : 				{
					"destination" : [ "obj-98", 0 ],
					"midpoints" : [ 28.166626, 272.432373, 28.166626, 272.432373 ],
					"source" : [ "obj-99", 0 ]
				}

			}
 ],
		"parameters" : 		{
			"obj-30" : [ "Map[2]", "Map", 0 ],
			"obj-23" : [ "Map[84]", "Map", 0 ],
			"obj-24" : [ "Map[1]", "Map", 0 ]
		}
,
		"dependency_cache" : [ 			{
				"name" : "bach.ezmidiplay.maxpat",
				"bootpath" : "~/Documents/Max 7/Packages/bach/patchers",
				"patcherrelativepath" : "../../../../../Documents/Max 7/Packages/bach/patchers",
				"type" : "JSON",
				"implicit" : 1
			}
, 			{
				"name" : "bach.gcd.maxpat",
				"bootpath" : "~/Documents/Max 7/Packages/bach/patchers",
				"patcherrelativepath" : "../../../../../Documents/Max 7/Packages/bach/patchers",
				"type" : "JSON",
				"implicit" : 1
			}
, 			{
				"name" : "bach.approx.maxpat",
				"bootpath" : "~/Documents/Max 7/Packages/bach/patchers",
				"patcherrelativepath" : "../../../../../Documents/Max 7/Packages/bach/patchers",
				"type" : "JSON",
				"implicit" : 1
			}
, 			{
				"name" : "bach.filter.maxpat",
				"bootpath" : "~/Documents/Max 7/Packages/bach/patchers",
				"patcherrelativepath" : "../../../../../Documents/Max 7/Packages/bach/patchers",
				"type" : "JSON",
				"implicit" : 1
			}
, 			{
				"name" : "bach.roll.mxo",
				"type" : "iLaX"
			}
, 			{
				"name" : "bach.playkeys.mxo",
				"type" : "iLaX"
			}
, 			{
				"name" : "bach.expr.mxo",
				"type" : "iLaX"
			}
, 			{
				"name" : "bach.length.mxo",
				"type" : "iLaX"
			}
, 			{
				"name" : "bach.iter.mxo",
				"type" : "iLaX"
			}
, 			{
				"name" : "bach.flat.mxo",
				"type" : "iLaX"
			}
, 			{
				"name" : "bach.pick.mxo",
				"type" : "iLaX"
			}
, 			{
				"name" : "bach.args.mxo",
				"type" : "iLaX"
			}
, 			{
				"name" : "bach.reg.mxo",
				"type" : "iLaX"
			}
, 			{
				"name" : "bach.print.mxo",
				"type" : "iLaX"
			}
, 			{
				"name" : "bach.keys.mxo",
				"type" : "iLaX"
			}
, 			{
				"name" : "bach.portal.mxo",
				"type" : "iLaX"
			}
, 			{
				"name" : "bach.gt.mxo",
				"type" : "iLaX"
			}
, 			{
				"name" : "bach.is.mxo",
				"type" : "iLaX"
			}
, 			{
				"name" : "bach.neq.mxo",
				"type" : "iLaX"
			}
, 			{
				"name" : "bach.eq.mxo",
				"type" : "iLaX"
			}
, 			{
				"name" : "bach.nth.mxo",
				"type" : "iLaX"
			}
, 			{
				"name" : "bach.slice.mxo",
				"type" : "iLaX"
			}
 ],
		"autosave" : 0,
		"styles" : [ 			{
				"name" : "AudioStatus_Menu",
				"default" : 				{
					"bgfillcolor" : 					{
						"type" : "color",
						"color" : [ 0.294118, 0.313726, 0.337255, 1 ],
						"color1" : [ 0.454902, 0.462745, 0.482353, 0.0 ],
						"color2" : [ 0.290196, 0.309804, 0.301961, 1.0 ],
						"angle" : 270.0,
						"proportion" : 0.39,
						"autogradient" : 0
					}

				}
,
				"parentstyle" : "",
				"multi" : 0
			}
, 			{
				"name" : "ksliderWhite",
				"default" : 				{
					"color" : [ 1.0, 1.0, 1.0, 1.0 ]
				}
,
				"parentstyle" : "",
				"multi" : 0
			}
, 			{
				"name" : "newobjBlue-1",
				"default" : 				{
					"accentcolor" : [ 0.317647, 0.654902, 0.976471, 1.0 ]
				}
,
				"parentstyle" : "",
				"multi" : 0
			}
, 			{
				"name" : "newobjGreen-1",
				"default" : 				{
					"accentcolor" : [ 0.0, 0.533333, 0.168627, 1.0 ]
				}
,
				"parentstyle" : "",
				"multi" : 0
			}
, 			{
				"name" : "numberGold-1",
				"default" : 				{
					"accentcolor" : [ 0.764706, 0.592157, 0.101961, 1.0 ]
				}
,
				"parentstyle" : "",
				"multi" : 0
			}
 ]
	}

}
